G04 #@! TF.GenerationSoftware,KiCad,Pcbnew,(5.1.2)-1*
G04 #@! TF.CreationDate,2019-08-24T00:01:25+03:00*
G04 #@! TF.ProjectId,PomodoroTomatoTimer,506f6d6f-646f-4726-9f54-6f6d61746f54,rev?*
G04 #@! TF.SameCoordinates,Original*
G04 #@! TF.FileFunction,Legend,Top*
G04 #@! TF.FilePolarity,Positive*
%FSLAX46Y46*%
G04 Gerber Fmt 4.6, Leading zero omitted, Abs format (unit mm)*
G04 Created by KiCad (PCBNEW (5.1.2)-1) date 2019-08-24 00:01:25*
%MOMM*%
%LPD*%
G04 APERTURE LIST*
%ADD10C,0.150000*%
%ADD11C,0.120000*%
G04 APERTURE END LIST*
D10*
X145621714Y-86305380D02*
X145621714Y-85305380D01*
X146193142Y-86305380D02*
X145764571Y-85733952D01*
X146193142Y-85305380D02*
X145621714Y-85876809D01*
X146621714Y-86305380D02*
X146621714Y-85638714D01*
X146621714Y-85305380D02*
X146574095Y-85353000D01*
X146621714Y-85400619D01*
X146669333Y-85353000D01*
X146621714Y-85305380D01*
X146621714Y-85400619D01*
X147478857Y-86257761D02*
X147383619Y-86305380D01*
X147193142Y-86305380D01*
X147097904Y-86257761D01*
X147050285Y-86162523D01*
X147050285Y-85781571D01*
X147097904Y-85686333D01*
X147193142Y-85638714D01*
X147383619Y-85638714D01*
X147478857Y-85686333D01*
X147526476Y-85781571D01*
X147526476Y-85876809D01*
X147050285Y-85972047D01*
X147907428Y-86257761D02*
X148002666Y-86305380D01*
X148193142Y-86305380D01*
X148288380Y-86257761D01*
X148336000Y-86162523D01*
X148336000Y-86114904D01*
X148288380Y-86019666D01*
X148193142Y-85972047D01*
X148050285Y-85972047D01*
X147955047Y-85924428D01*
X147907428Y-85829190D01*
X147907428Y-85781571D01*
X147955047Y-85686333D01*
X148050285Y-85638714D01*
X148193142Y-85638714D01*
X148288380Y-85686333D01*
X150097904Y-86305380D02*
X149764571Y-85829190D01*
X149526476Y-86305380D02*
X149526476Y-85305380D01*
X149907428Y-85305380D01*
X150002666Y-85353000D01*
X150050285Y-85400619D01*
X150097904Y-85495857D01*
X150097904Y-85638714D01*
X150050285Y-85733952D01*
X150002666Y-85781571D01*
X149907428Y-85829190D01*
X149526476Y-85829190D01*
X150526476Y-86305380D02*
X150526476Y-85305380D01*
X150764571Y-85305380D01*
X150907428Y-85353000D01*
X151002666Y-85448238D01*
X151050285Y-85543476D01*
X151097904Y-85733952D01*
X151097904Y-85876809D01*
X151050285Y-86067285D01*
X151002666Y-86162523D01*
X150907428Y-86257761D01*
X150764571Y-86305380D01*
X150526476Y-86305380D01*
X144550285Y-87955380D02*
X144550285Y-86955380D01*
X144645523Y-87574428D02*
X144931238Y-87955380D01*
X144931238Y-87288714D02*
X144550285Y-87669666D01*
X145359809Y-87955380D02*
X145359809Y-87288714D01*
X145359809Y-86955380D02*
X145312190Y-87003000D01*
X145359809Y-87050619D01*
X145407428Y-87003000D01*
X145359809Y-86955380D01*
X145359809Y-87050619D01*
X146216952Y-87907761D02*
X146121714Y-87955380D01*
X145931238Y-87955380D01*
X145836000Y-87907761D01*
X145788380Y-87812523D01*
X145788380Y-87431571D01*
X145836000Y-87336333D01*
X145931238Y-87288714D01*
X146121714Y-87288714D01*
X146216952Y-87336333D01*
X146264571Y-87431571D01*
X146264571Y-87526809D01*
X145788380Y-87622047D01*
X146645523Y-87907761D02*
X146740761Y-87955380D01*
X146931238Y-87955380D01*
X147026476Y-87907761D01*
X147074095Y-87812523D01*
X147074095Y-87764904D01*
X147026476Y-87669666D01*
X146931238Y-87622047D01*
X146788380Y-87622047D01*
X146693142Y-87574428D01*
X146645523Y-87479190D01*
X146645523Y-87431571D01*
X146693142Y-87336333D01*
X146788380Y-87288714D01*
X146931238Y-87288714D01*
X147026476Y-87336333D01*
X147502666Y-87955380D02*
X147502666Y-87288714D01*
X147502666Y-87479190D02*
X147550285Y-87383952D01*
X147597904Y-87336333D01*
X147693142Y-87288714D01*
X147788380Y-87288714D01*
X148550285Y-87955380D02*
X148550285Y-86955380D01*
X148550285Y-87907761D02*
X148455047Y-87955380D01*
X148264571Y-87955380D01*
X148169333Y-87907761D01*
X148121714Y-87860142D01*
X148074095Y-87764904D01*
X148074095Y-87479190D01*
X148121714Y-87383952D01*
X148169333Y-87336333D01*
X148264571Y-87288714D01*
X148455047Y-87288714D01*
X148550285Y-87336333D01*
X149026476Y-87860142D02*
X149074095Y-87907761D01*
X149026476Y-87955380D01*
X148978857Y-87907761D01*
X149026476Y-87860142D01*
X149026476Y-87955380D01*
X149931238Y-87907761D02*
X149836000Y-87955380D01*
X149645523Y-87955380D01*
X149550285Y-87907761D01*
X149502666Y-87860142D01*
X149455047Y-87764904D01*
X149455047Y-87479190D01*
X149502666Y-87383952D01*
X149550285Y-87336333D01*
X149645523Y-87288714D01*
X149836000Y-87288714D01*
X149931238Y-87336333D01*
X150502666Y-87955380D02*
X150407428Y-87907761D01*
X150359809Y-87860142D01*
X150312190Y-87764904D01*
X150312190Y-87479190D01*
X150359809Y-87383952D01*
X150407428Y-87336333D01*
X150502666Y-87288714D01*
X150645523Y-87288714D01*
X150740761Y-87336333D01*
X150788380Y-87383952D01*
X150836000Y-87479190D01*
X150836000Y-87764904D01*
X150788380Y-87860142D01*
X150740761Y-87907761D01*
X150645523Y-87955380D01*
X150502666Y-87955380D01*
X151264571Y-87955380D02*
X151264571Y-87288714D01*
X151264571Y-87383952D02*
X151312190Y-87336333D01*
X151407428Y-87288714D01*
X151550285Y-87288714D01*
X151645523Y-87336333D01*
X151693142Y-87431571D01*
X151693142Y-87955380D01*
X151693142Y-87431571D02*
X151740761Y-87336333D01*
X151836000Y-87288714D01*
X151978857Y-87288714D01*
X152074095Y-87336333D01*
X152121714Y-87431571D01*
X152121714Y-87955380D01*
X146074095Y-89224428D02*
X146836000Y-89224428D01*
X147312190Y-89605380D02*
X147312190Y-88605380D01*
X147693142Y-88605380D01*
X147788380Y-88653000D01*
X147836000Y-88700619D01*
X147883619Y-88795857D01*
X147883619Y-88938714D01*
X147836000Y-89033952D01*
X147788380Y-89081571D01*
X147693142Y-89129190D01*
X147312190Y-89129190D01*
X148169333Y-88605380D02*
X148740761Y-88605380D01*
X148455047Y-89605380D02*
X148455047Y-88605380D01*
X148931238Y-88605380D02*
X149502666Y-88605380D01*
X149216952Y-89605380D02*
X149216952Y-88605380D01*
X149836000Y-89224428D02*
X150597904Y-89224428D01*
D11*
X145232000Y-80248000D02*
X145232000Y-77563000D01*
X145232000Y-77563000D02*
X143312000Y-77563000D01*
X143312000Y-77563000D02*
X143312000Y-80248000D01*
X137652000Y-91860000D02*
X142152000Y-91860000D01*
X136402000Y-87860000D02*
X136402000Y-89360000D01*
X142152000Y-85360000D02*
X137652000Y-85360000D01*
X143402000Y-89360000D02*
X143402000Y-87860000D01*
X147538221Y-99189000D02*
X147863779Y-99189000D01*
X147538221Y-98169000D02*
X147863779Y-98169000D01*
X144901000Y-99349779D02*
X144901000Y-99024221D01*
X145921000Y-99349779D02*
X145921000Y-99024221D01*
D10*
X151786000Y-96035000D02*
X151786000Y-91585000D01*
X144886000Y-97560000D02*
X144886000Y-91585000D01*
D11*
X131516000Y-80248000D02*
X131516000Y-77563000D01*
X131516000Y-77563000D02*
X129596000Y-77563000D01*
X129596000Y-77563000D02*
X129596000Y-80248000D01*
X134168000Y-77563000D02*
X134168000Y-80248000D01*
X136088000Y-77563000D02*
X134168000Y-77563000D01*
X136088000Y-80248000D02*
X136088000Y-77563000D01*
X138740000Y-77563000D02*
X138740000Y-80248000D01*
X140660000Y-77563000D02*
X138740000Y-77563000D01*
X140660000Y-80248000D02*
X140660000Y-77563000D01*
X147884000Y-77563000D02*
X147884000Y-80248000D01*
X149804000Y-77563000D02*
X147884000Y-77563000D01*
X149804000Y-80248000D02*
X149804000Y-77563000D01*
X133098000Y-79085221D02*
X133098000Y-79410779D01*
X132078000Y-79085221D02*
X132078000Y-79410779D01*
X136650000Y-79085221D02*
X136650000Y-79410779D01*
X137670000Y-79085221D02*
X137670000Y-79410779D01*
X141222000Y-79085221D02*
X141222000Y-79410779D01*
X142242000Y-79085221D02*
X142242000Y-79410779D01*
X146814000Y-79085221D02*
X146814000Y-79410779D01*
X145794000Y-79085221D02*
X145794000Y-79410779D01*
X151386000Y-79085221D02*
X151386000Y-79410779D01*
X150366000Y-79085221D02*
X150366000Y-79410779D01*
X143004000Y-94325221D02*
X143004000Y-94650779D01*
X141984000Y-94325221D02*
X141984000Y-94650779D01*
X143381000Y-94325221D02*
X143381000Y-94650779D01*
X144401000Y-94325221D02*
X144401000Y-94650779D01*
X128810273Y-95385478D02*
X129040478Y-95155273D01*
X129531522Y-96106727D02*
X129761727Y-95876522D01*
X129023522Y-94582727D02*
X129253727Y-94352522D01*
X128302273Y-93861478D02*
X128532478Y-93631273D01*
X131570000Y-90226000D02*
X130110000Y-90226000D01*
X131570000Y-87066000D02*
X129410000Y-87066000D01*
X131570000Y-87066000D02*
X131570000Y-87996000D01*
X131570000Y-90226000D02*
X131570000Y-89296000D01*
X128526000Y-83510000D02*
X128526000Y-84440000D01*
X128526000Y-86670000D02*
X128526000Y-85740000D01*
X128526000Y-86670000D02*
X130686000Y-86670000D01*
X128526000Y-83510000D02*
X129986000Y-83510000D01*
X128780000Y-89037279D02*
X128780000Y-88711721D01*
X127760000Y-89037279D02*
X127760000Y-88711721D01*
X131189000Y-85379779D02*
X131189000Y-85054221D01*
X132209000Y-85379779D02*
X132209000Y-85054221D01*
X137470000Y-97030000D02*
X136540000Y-97030000D01*
X134310000Y-97030000D02*
X135240000Y-97030000D01*
X134310000Y-97030000D02*
X134310000Y-99190000D01*
X137470000Y-97030000D02*
X137470000Y-98490000D01*
X141026000Y-97030000D02*
X140096000Y-97030000D01*
X137866000Y-97030000D02*
X138796000Y-97030000D01*
X137866000Y-97030000D02*
X137866000Y-99190000D01*
X141026000Y-97030000D02*
X141026000Y-98490000D01*
X143762000Y-99370000D02*
X142302000Y-99370000D01*
X143762000Y-96210000D02*
X141602000Y-96210000D01*
X143762000Y-96210000D02*
X143762000Y-97140000D01*
X143762000Y-99370000D02*
X143762000Y-98440000D01*
X136052779Y-100840000D02*
X135727221Y-100840000D01*
X136052779Y-99820000D02*
X135727221Y-99820000D01*
X133860000Y-99379721D02*
X133860000Y-99705279D01*
X132840000Y-99379721D02*
X132840000Y-99705279D01*
X139029221Y-100840000D02*
X139354779Y-100840000D01*
X139029221Y-99820000D02*
X139354779Y-99820000D01*
D10*
X143454380Y-82653095D02*
X142454380Y-82653095D01*
X142454380Y-82415000D01*
X142502000Y-82272142D01*
X142597238Y-82176904D01*
X142692476Y-82129285D01*
X142882952Y-82081666D01*
X143025809Y-82081666D01*
X143216285Y-82129285D01*
X143311523Y-82176904D01*
X143406761Y-82272142D01*
X143454380Y-82415000D01*
X143454380Y-82653095D01*
X142787714Y-81224523D02*
X143454380Y-81224523D01*
X142406761Y-81462619D02*
X143121047Y-81700714D01*
X143121047Y-81081666D01*
X138568666Y-84764761D02*
X138711523Y-84812380D01*
X138949619Y-84812380D01*
X139044857Y-84764761D01*
X139092476Y-84717142D01*
X139140095Y-84621904D01*
X139140095Y-84526666D01*
X139092476Y-84431428D01*
X139044857Y-84383809D01*
X138949619Y-84336190D01*
X138759142Y-84288571D01*
X138663904Y-84240952D01*
X138616285Y-84193333D01*
X138568666Y-84098095D01*
X138568666Y-84002857D01*
X138616285Y-83907619D01*
X138663904Y-83860000D01*
X138759142Y-83812380D01*
X138997238Y-83812380D01*
X139140095Y-83860000D01*
X139473428Y-83812380D02*
X139711523Y-84812380D01*
X139902000Y-84098095D01*
X140092476Y-84812380D01*
X140330571Y-83812380D01*
X141235333Y-84812380D02*
X140663904Y-84812380D01*
X140949619Y-84812380D02*
X140949619Y-83812380D01*
X140854380Y-83955238D01*
X140759142Y-84050476D01*
X140663904Y-84098095D01*
X150074333Y-99131380D02*
X149741000Y-98655190D01*
X149502904Y-99131380D02*
X149502904Y-98131380D01*
X149883857Y-98131380D01*
X149979095Y-98179000D01*
X150026714Y-98226619D01*
X150074333Y-98321857D01*
X150074333Y-98464714D01*
X150026714Y-98559952D01*
X149979095Y-98607571D01*
X149883857Y-98655190D01*
X149502904Y-98655190D01*
X151026714Y-99131380D02*
X150455285Y-99131380D01*
X150741000Y-99131380D02*
X150741000Y-98131380D01*
X150645761Y-98274238D01*
X150550523Y-98369476D01*
X150455285Y-98417095D01*
X147391380Y-100496666D02*
X146915190Y-100830000D01*
X147391380Y-101068095D02*
X146391380Y-101068095D01*
X146391380Y-100687142D01*
X146439000Y-100591904D01*
X146486619Y-100544285D01*
X146581857Y-100496666D01*
X146724714Y-100496666D01*
X146819952Y-100544285D01*
X146867571Y-100591904D01*
X146915190Y-100687142D01*
X146915190Y-101068095D01*
X146486619Y-100115714D02*
X146439000Y-100068095D01*
X146391380Y-99972857D01*
X146391380Y-99734761D01*
X146439000Y-99639523D01*
X146486619Y-99591904D01*
X146581857Y-99544285D01*
X146677095Y-99544285D01*
X146819952Y-99591904D01*
X147391380Y-100163333D01*
X147391380Y-99544285D01*
X143002095Y-92035380D02*
X143002095Y-92844904D01*
X143049714Y-92940142D01*
X143097333Y-92987761D01*
X143192571Y-93035380D01*
X143383047Y-93035380D01*
X143478285Y-92987761D01*
X143525904Y-92940142D01*
X143573523Y-92844904D01*
X143573523Y-92035380D01*
X144573523Y-93035380D02*
X144002095Y-93035380D01*
X144287809Y-93035380D02*
X144287809Y-92035380D01*
X144192571Y-92178238D01*
X144097333Y-92273476D01*
X144002095Y-92321095D01*
X131008380Y-82653095D02*
X130008380Y-82653095D01*
X130008380Y-82415000D01*
X130056000Y-82272142D01*
X130151238Y-82176904D01*
X130246476Y-82129285D01*
X130436952Y-82081666D01*
X130579809Y-82081666D01*
X130770285Y-82129285D01*
X130865523Y-82176904D01*
X130960761Y-82272142D01*
X131008380Y-82415000D01*
X131008380Y-82653095D01*
X131008380Y-81129285D02*
X131008380Y-81700714D01*
X131008380Y-81415000D02*
X130008380Y-81415000D01*
X130151238Y-81510238D01*
X130246476Y-81605476D01*
X130294095Y-81700714D01*
X135580380Y-82653095D02*
X134580380Y-82653095D01*
X134580380Y-82415000D01*
X134628000Y-82272142D01*
X134723238Y-82176904D01*
X134818476Y-82129285D01*
X135008952Y-82081666D01*
X135151809Y-82081666D01*
X135342285Y-82129285D01*
X135437523Y-82176904D01*
X135532761Y-82272142D01*
X135580380Y-82415000D01*
X135580380Y-82653095D01*
X134675619Y-81700714D02*
X134628000Y-81653095D01*
X134580380Y-81557857D01*
X134580380Y-81319761D01*
X134628000Y-81224523D01*
X134675619Y-81176904D01*
X134770857Y-81129285D01*
X134866095Y-81129285D01*
X135008952Y-81176904D01*
X135580380Y-81748333D01*
X135580380Y-81129285D01*
X140152380Y-82653095D02*
X139152380Y-82653095D01*
X139152380Y-82415000D01*
X139200000Y-82272142D01*
X139295238Y-82176904D01*
X139390476Y-82129285D01*
X139580952Y-82081666D01*
X139723809Y-82081666D01*
X139914285Y-82129285D01*
X140009523Y-82176904D01*
X140104761Y-82272142D01*
X140152380Y-82415000D01*
X140152380Y-82653095D01*
X139152380Y-81748333D02*
X139152380Y-81129285D01*
X139533333Y-81462619D01*
X139533333Y-81319761D01*
X139580952Y-81224523D01*
X139628571Y-81176904D01*
X139723809Y-81129285D01*
X139961904Y-81129285D01*
X140057142Y-81176904D01*
X140104761Y-81224523D01*
X140152380Y-81319761D01*
X140152380Y-81605476D01*
X140104761Y-81700714D01*
X140057142Y-81748333D01*
X149296380Y-82653095D02*
X148296380Y-82653095D01*
X148296380Y-82415000D01*
X148344000Y-82272142D01*
X148439238Y-82176904D01*
X148534476Y-82129285D01*
X148724952Y-82081666D01*
X148867809Y-82081666D01*
X149058285Y-82129285D01*
X149153523Y-82176904D01*
X149248761Y-82272142D01*
X149296380Y-82415000D01*
X149296380Y-82653095D01*
X148296380Y-81176904D02*
X148296380Y-81653095D01*
X148772571Y-81700714D01*
X148724952Y-81653095D01*
X148677333Y-81557857D01*
X148677333Y-81319761D01*
X148724952Y-81224523D01*
X148772571Y-81176904D01*
X148867809Y-81129285D01*
X149105904Y-81129285D01*
X149201142Y-81176904D01*
X149248761Y-81224523D01*
X149296380Y-81319761D01*
X149296380Y-81557857D01*
X149248761Y-81653095D01*
X149201142Y-81700714D01*
X133040380Y-82081666D02*
X132564190Y-82415000D01*
X133040380Y-82653095D02*
X132040380Y-82653095D01*
X132040380Y-82272142D01*
X132088000Y-82176904D01*
X132135619Y-82129285D01*
X132230857Y-82081666D01*
X132373714Y-82081666D01*
X132468952Y-82129285D01*
X132516571Y-82176904D01*
X132564190Y-82272142D01*
X132564190Y-82653095D01*
X132040380Y-81748333D02*
X132040380Y-81129285D01*
X132421333Y-81462619D01*
X132421333Y-81319761D01*
X132468952Y-81224523D01*
X132516571Y-81176904D01*
X132611809Y-81129285D01*
X132849904Y-81129285D01*
X132945142Y-81176904D01*
X132992761Y-81224523D01*
X133040380Y-81319761D01*
X133040380Y-81605476D01*
X132992761Y-81700714D01*
X132945142Y-81748333D01*
X137612380Y-82081666D02*
X137136190Y-82415000D01*
X137612380Y-82653095D02*
X136612380Y-82653095D01*
X136612380Y-82272142D01*
X136660000Y-82176904D01*
X136707619Y-82129285D01*
X136802857Y-82081666D01*
X136945714Y-82081666D01*
X137040952Y-82129285D01*
X137088571Y-82176904D01*
X137136190Y-82272142D01*
X137136190Y-82653095D01*
X136945714Y-81224523D02*
X137612380Y-81224523D01*
X136564761Y-81462619D02*
X137279047Y-81700714D01*
X137279047Y-81081666D01*
X142184380Y-82081666D02*
X141708190Y-82415000D01*
X142184380Y-82653095D02*
X141184380Y-82653095D01*
X141184380Y-82272142D01*
X141232000Y-82176904D01*
X141279619Y-82129285D01*
X141374857Y-82081666D01*
X141517714Y-82081666D01*
X141612952Y-82129285D01*
X141660571Y-82176904D01*
X141708190Y-82272142D01*
X141708190Y-82653095D01*
X141184380Y-81176904D02*
X141184380Y-81653095D01*
X141660571Y-81700714D01*
X141612952Y-81653095D01*
X141565333Y-81557857D01*
X141565333Y-81319761D01*
X141612952Y-81224523D01*
X141660571Y-81176904D01*
X141755809Y-81129285D01*
X141993904Y-81129285D01*
X142089142Y-81176904D01*
X142136761Y-81224523D01*
X142184380Y-81319761D01*
X142184380Y-81557857D01*
X142136761Y-81653095D01*
X142089142Y-81700714D01*
X147772380Y-82081666D02*
X147296190Y-82415000D01*
X147772380Y-82653095D02*
X146772380Y-82653095D01*
X146772380Y-82272142D01*
X146820000Y-82176904D01*
X146867619Y-82129285D01*
X146962857Y-82081666D01*
X147105714Y-82081666D01*
X147200952Y-82129285D01*
X147248571Y-82176904D01*
X147296190Y-82272142D01*
X147296190Y-82653095D01*
X146772380Y-81224523D02*
X146772380Y-81415000D01*
X146820000Y-81510238D01*
X146867619Y-81557857D01*
X147010476Y-81653095D01*
X147200952Y-81700714D01*
X147581904Y-81700714D01*
X147677142Y-81653095D01*
X147724761Y-81605476D01*
X147772380Y-81510238D01*
X147772380Y-81319761D01*
X147724761Y-81224523D01*
X147677142Y-81176904D01*
X147581904Y-81129285D01*
X147343809Y-81129285D01*
X147248571Y-81176904D01*
X147200952Y-81224523D01*
X147153333Y-81319761D01*
X147153333Y-81510238D01*
X147200952Y-81605476D01*
X147248571Y-81653095D01*
X147343809Y-81700714D01*
X151328380Y-82208666D02*
X150852190Y-82542000D01*
X151328380Y-82780095D02*
X150328380Y-82780095D01*
X150328380Y-82399142D01*
X150376000Y-82303904D01*
X150423619Y-82256285D01*
X150518857Y-82208666D01*
X150661714Y-82208666D01*
X150756952Y-82256285D01*
X150804571Y-82303904D01*
X150852190Y-82399142D01*
X150852190Y-82780095D01*
X150328380Y-81875333D02*
X150328380Y-81208666D01*
X151328380Y-81637238D01*
X140184142Y-94654666D02*
X140231761Y-94702285D01*
X140279380Y-94845142D01*
X140279380Y-94940380D01*
X140231761Y-95083238D01*
X140136523Y-95178476D01*
X140041285Y-95226095D01*
X139850809Y-95273714D01*
X139707952Y-95273714D01*
X139517476Y-95226095D01*
X139422238Y-95178476D01*
X139327000Y-95083238D01*
X139279380Y-94940380D01*
X139279380Y-94845142D01*
X139327000Y-94702285D01*
X139374619Y-94654666D01*
X140279380Y-93702285D02*
X140279380Y-94273714D01*
X140279380Y-93988000D02*
X139279380Y-93988000D01*
X139422238Y-94083238D01*
X139517476Y-94178476D01*
X139565095Y-94273714D01*
X141454142Y-94654666D02*
X141501761Y-94702285D01*
X141549380Y-94845142D01*
X141549380Y-94940380D01*
X141501761Y-95083238D01*
X141406523Y-95178476D01*
X141311285Y-95226095D01*
X141120809Y-95273714D01*
X140977952Y-95273714D01*
X140787476Y-95226095D01*
X140692238Y-95178476D01*
X140597000Y-95083238D01*
X140549380Y-94940380D01*
X140549380Y-94845142D01*
X140597000Y-94702285D01*
X140644619Y-94654666D01*
X140644619Y-94273714D02*
X140597000Y-94226095D01*
X140549380Y-94130857D01*
X140549380Y-93892761D01*
X140597000Y-93797523D01*
X140644619Y-93749904D01*
X140739857Y-93702285D01*
X140835095Y-93702285D01*
X140977952Y-93749904D01*
X141549380Y-94321333D01*
X141549380Y-93702285D01*
X131198687Y-94350389D02*
X131198687Y-94417732D01*
X131131343Y-94552419D01*
X131064000Y-94619763D01*
X130929312Y-94687106D01*
X130794625Y-94687106D01*
X130693610Y-94653435D01*
X130525251Y-94552419D01*
X130424236Y-94451404D01*
X130323221Y-94283045D01*
X130289549Y-94182030D01*
X130289549Y-94047343D01*
X130356893Y-93912656D01*
X130424236Y-93845312D01*
X130558923Y-93777969D01*
X130626267Y-93777969D01*
X130794625Y-93474923D02*
X131232358Y-93037190D01*
X131266030Y-93542267D01*
X131367045Y-93441251D01*
X131468061Y-93407580D01*
X131535404Y-93407580D01*
X131636419Y-93441251D01*
X131804778Y-93609610D01*
X131838450Y-93710625D01*
X131838450Y-93777969D01*
X131804778Y-93878984D01*
X131602748Y-94081015D01*
X131501732Y-94114687D01*
X131434389Y-94114687D01*
X130690687Y-92699389D02*
X130690687Y-92766732D01*
X130623343Y-92901419D01*
X130556000Y-92968763D01*
X130421312Y-93036106D01*
X130286625Y-93036106D01*
X130185610Y-93002435D01*
X130017251Y-92901419D01*
X129916236Y-92800404D01*
X129815221Y-92632045D01*
X129781549Y-92531030D01*
X129781549Y-92396343D01*
X129848893Y-92261656D01*
X129916236Y-92194312D01*
X130050923Y-92126969D01*
X130118267Y-92126969D01*
X130892717Y-91689236D02*
X131364122Y-92160641D01*
X130454984Y-91588221D02*
X130791702Y-92261656D01*
X131229435Y-91823923D01*
X135040619Y-88741238D02*
X134993000Y-88836476D01*
X134897761Y-88931714D01*
X134754904Y-89074571D01*
X134707285Y-89169809D01*
X134707285Y-89265047D01*
X134945380Y-89217428D02*
X134897761Y-89312666D01*
X134802523Y-89407904D01*
X134612047Y-89455523D01*
X134278714Y-89455523D01*
X134088238Y-89407904D01*
X133993000Y-89312666D01*
X133945380Y-89217428D01*
X133945380Y-89026952D01*
X133993000Y-88931714D01*
X134088238Y-88836476D01*
X134278714Y-88788857D01*
X134612047Y-88788857D01*
X134802523Y-88836476D01*
X134897761Y-88931714D01*
X134945380Y-89026952D01*
X134945380Y-89217428D01*
X134945380Y-87836476D02*
X134945380Y-88407904D01*
X134945380Y-88122190D02*
X133945380Y-88122190D01*
X134088238Y-88217428D01*
X134183476Y-88312666D01*
X134231095Y-88407904D01*
X133770619Y-85185238D02*
X133723000Y-85280476D01*
X133627761Y-85375714D01*
X133484904Y-85518571D01*
X133437285Y-85613809D01*
X133437285Y-85709047D01*
X133675380Y-85661428D02*
X133627761Y-85756666D01*
X133532523Y-85851904D01*
X133342047Y-85899523D01*
X133008714Y-85899523D01*
X132818238Y-85851904D01*
X132723000Y-85756666D01*
X132675380Y-85661428D01*
X132675380Y-85470952D01*
X132723000Y-85375714D01*
X132818238Y-85280476D01*
X133008714Y-85232857D01*
X133342047Y-85232857D01*
X133532523Y-85280476D01*
X133627761Y-85375714D01*
X133675380Y-85470952D01*
X133675380Y-85661428D01*
X132770619Y-84851904D02*
X132723000Y-84804285D01*
X132675380Y-84709047D01*
X132675380Y-84470952D01*
X132723000Y-84375714D01*
X132770619Y-84328095D01*
X132865857Y-84280476D01*
X132961095Y-84280476D01*
X133103952Y-84328095D01*
X133675380Y-84899523D01*
X133675380Y-84280476D01*
X133675380Y-88812666D02*
X133199190Y-89146000D01*
X133675380Y-89384095D02*
X132675380Y-89384095D01*
X132675380Y-89003142D01*
X132723000Y-88907904D01*
X132770619Y-88860285D01*
X132865857Y-88812666D01*
X133008714Y-88812666D01*
X133103952Y-88860285D01*
X133151571Y-88907904D01*
X133199190Y-89003142D01*
X133199190Y-89384095D01*
X133103952Y-88241238D02*
X133056333Y-88336476D01*
X133008714Y-88384095D01*
X132913476Y-88431714D01*
X132865857Y-88431714D01*
X132770619Y-88384095D01*
X132723000Y-88336476D01*
X132675380Y-88241238D01*
X132675380Y-88050761D01*
X132723000Y-87955523D01*
X132770619Y-87907904D01*
X132865857Y-87860285D01*
X132913476Y-87860285D01*
X133008714Y-87907904D01*
X133056333Y-87955523D01*
X133103952Y-88050761D01*
X133103952Y-88241238D01*
X133151571Y-88336476D01*
X133199190Y-88384095D01*
X133294428Y-88431714D01*
X133484904Y-88431714D01*
X133580142Y-88384095D01*
X133627761Y-88336476D01*
X133675380Y-88241238D01*
X133675380Y-88050761D01*
X133627761Y-87955523D01*
X133580142Y-87907904D01*
X133484904Y-87860285D01*
X133294428Y-87860285D01*
X133199190Y-87907904D01*
X133151571Y-87955523D01*
X133103952Y-88050761D01*
X134945380Y-85859857D02*
X134469190Y-86193190D01*
X134945380Y-86431285D02*
X133945380Y-86431285D01*
X133945380Y-86050333D01*
X133993000Y-85955095D01*
X134040619Y-85907476D01*
X134135857Y-85859857D01*
X134278714Y-85859857D01*
X134373952Y-85907476D01*
X134421571Y-85955095D01*
X134469190Y-86050333D01*
X134469190Y-86431285D01*
X134945380Y-84907476D02*
X134945380Y-85478904D01*
X134945380Y-85193190D02*
X133945380Y-85193190D01*
X134088238Y-85288428D01*
X134183476Y-85383666D01*
X134231095Y-85478904D01*
X134945380Y-83955095D02*
X134945380Y-84526523D01*
X134945380Y-84240809D02*
X133945380Y-84240809D01*
X134088238Y-84336047D01*
X134183476Y-84431285D01*
X134231095Y-84526523D01*
X134905761Y-94654619D02*
X134810523Y-94607000D01*
X134715285Y-94511761D01*
X134572428Y-94368904D01*
X134477190Y-94321285D01*
X134381952Y-94321285D01*
X134429571Y-94559380D02*
X134334333Y-94511761D01*
X134239095Y-94416523D01*
X134191476Y-94226047D01*
X134191476Y-93892714D01*
X134239095Y-93702238D01*
X134334333Y-93607000D01*
X134429571Y-93559380D01*
X134620047Y-93559380D01*
X134715285Y-93607000D01*
X134810523Y-93702238D01*
X134858142Y-93892714D01*
X134858142Y-94226047D01*
X134810523Y-94416523D01*
X134715285Y-94511761D01*
X134620047Y-94559380D01*
X134429571Y-94559380D01*
X135191476Y-93559380D02*
X135810523Y-93559380D01*
X135477190Y-93940333D01*
X135620047Y-93940333D01*
X135715285Y-93987952D01*
X135762904Y-94035571D01*
X135810523Y-94130809D01*
X135810523Y-94368904D01*
X135762904Y-94464142D01*
X135715285Y-94511761D01*
X135620047Y-94559380D01*
X135334333Y-94559380D01*
X135239095Y-94511761D01*
X135191476Y-94464142D01*
X137572761Y-94654619D02*
X137477523Y-94607000D01*
X137382285Y-94511761D01*
X137239428Y-94368904D01*
X137144190Y-94321285D01*
X137048952Y-94321285D01*
X137096571Y-94559380D02*
X137001333Y-94511761D01*
X136906095Y-94416523D01*
X136858476Y-94226047D01*
X136858476Y-93892714D01*
X136906095Y-93702238D01*
X137001333Y-93607000D01*
X137096571Y-93559380D01*
X137287047Y-93559380D01*
X137382285Y-93607000D01*
X137477523Y-93702238D01*
X137525142Y-93892714D01*
X137525142Y-94226047D01*
X137477523Y-94416523D01*
X137382285Y-94511761D01*
X137287047Y-94559380D01*
X137096571Y-94559380D01*
X138382285Y-93892714D02*
X138382285Y-94559380D01*
X138144190Y-93511761D02*
X137906095Y-94226047D01*
X138525142Y-94226047D01*
X144819619Y-100425238D02*
X144772000Y-100520476D01*
X144676761Y-100615714D01*
X144533904Y-100758571D01*
X144486285Y-100853809D01*
X144486285Y-100949047D01*
X144724380Y-100901428D02*
X144676761Y-100996666D01*
X144581523Y-101091904D01*
X144391047Y-101139523D01*
X144057714Y-101139523D01*
X143867238Y-101091904D01*
X143772000Y-100996666D01*
X143724380Y-100901428D01*
X143724380Y-100710952D01*
X143772000Y-100615714D01*
X143867238Y-100520476D01*
X144057714Y-100472857D01*
X144391047Y-100472857D01*
X144581523Y-100520476D01*
X144676761Y-100615714D01*
X144724380Y-100710952D01*
X144724380Y-100901428D01*
X143724380Y-99568095D02*
X143724380Y-100044285D01*
X144200571Y-100091904D01*
X144152952Y-100044285D01*
X144105333Y-99949047D01*
X144105333Y-99710952D01*
X144152952Y-99615714D01*
X144200571Y-99568095D01*
X144295809Y-99520476D01*
X144533904Y-99520476D01*
X144629142Y-99568095D01*
X144676761Y-99615714D01*
X144724380Y-99710952D01*
X144724380Y-99949047D01*
X144676761Y-100044285D01*
X144629142Y-100091904D01*
X134834333Y-95956380D02*
X134501000Y-95480190D01*
X134262904Y-95956380D02*
X134262904Y-94956380D01*
X134643857Y-94956380D01*
X134739095Y-95004000D01*
X134786714Y-95051619D01*
X134834333Y-95146857D01*
X134834333Y-95289714D01*
X134786714Y-95384952D01*
X134739095Y-95432571D01*
X134643857Y-95480190D01*
X134262904Y-95480190D01*
X135310523Y-95956380D02*
X135501000Y-95956380D01*
X135596238Y-95908761D01*
X135643857Y-95861142D01*
X135739095Y-95718285D01*
X135786714Y-95527809D01*
X135786714Y-95146857D01*
X135739095Y-95051619D01*
X135691476Y-95004000D01*
X135596238Y-94956380D01*
X135405761Y-94956380D01*
X135310523Y-95004000D01*
X135262904Y-95051619D01*
X135215285Y-95146857D01*
X135215285Y-95384952D01*
X135262904Y-95480190D01*
X135310523Y-95527809D01*
X135405761Y-95575428D01*
X135596238Y-95575428D01*
X135691476Y-95527809D01*
X135739095Y-95480190D01*
X135786714Y-95384952D01*
X133802380Y-97035857D02*
X133326190Y-97369190D01*
X133802380Y-97607285D02*
X132802380Y-97607285D01*
X132802380Y-97226333D01*
X132850000Y-97131095D01*
X132897619Y-97083476D01*
X132992857Y-97035857D01*
X133135714Y-97035857D01*
X133230952Y-97083476D01*
X133278571Y-97131095D01*
X133326190Y-97226333D01*
X133326190Y-97607285D01*
X133802380Y-96083476D02*
X133802380Y-96654904D01*
X133802380Y-96369190D02*
X132802380Y-96369190D01*
X132945238Y-96464428D01*
X133040476Y-96559666D01*
X133088095Y-96654904D01*
X132802380Y-95464428D02*
X132802380Y-95369190D01*
X132850000Y-95273952D01*
X132897619Y-95226333D01*
X132992857Y-95178714D01*
X133183333Y-95131095D01*
X133421428Y-95131095D01*
X133611904Y-95178714D01*
X133707142Y-95226333D01*
X133754761Y-95273952D01*
X133802380Y-95369190D01*
X133802380Y-95464428D01*
X133754761Y-95559666D01*
X133707142Y-95607285D01*
X133611904Y-95654904D01*
X133421428Y-95702523D01*
X133183333Y-95702523D01*
X132992857Y-95654904D01*
X132897619Y-95607285D01*
X132850000Y-95559666D01*
X132802380Y-95464428D01*
X137025142Y-95956380D02*
X136691809Y-95480190D01*
X136453714Y-95956380D02*
X136453714Y-94956380D01*
X136834666Y-94956380D01*
X136929904Y-95004000D01*
X136977523Y-95051619D01*
X137025142Y-95146857D01*
X137025142Y-95289714D01*
X136977523Y-95384952D01*
X136929904Y-95432571D01*
X136834666Y-95480190D01*
X136453714Y-95480190D01*
X137977523Y-95956380D02*
X137406095Y-95956380D01*
X137691809Y-95956380D02*
X137691809Y-94956380D01*
X137596571Y-95099238D01*
X137501333Y-95194476D01*
X137406095Y-95242095D01*
X138358476Y-95051619D02*
X138406095Y-95004000D01*
X138501333Y-94956380D01*
X138739428Y-94956380D01*
X138834666Y-95004000D01*
X138882285Y-95051619D01*
X138929904Y-95146857D01*
X138929904Y-95242095D01*
X138882285Y-95384952D01*
X138310857Y-95956380D01*
X138929904Y-95956380D01*
M02*
