G04 #@! TF.GenerationSoftware,KiCad,Pcbnew,(5.1.2)-1*
G04 #@! TF.CreationDate,2019-08-24T00:01:25+03:00*
G04 #@! TF.ProjectId,PomodoroTomatoTimer,506f6d6f-646f-4726-9f54-6f6d61746f54,rev?*
G04 #@! TF.SameCoordinates,Original*
G04 #@! TF.FileFunction,Soldermask,Top*
G04 #@! TF.FilePolarity,Negative*
%FSLAX46Y46*%
G04 Gerber Fmt 4.6, Leading zero omitted, Abs format (unit mm)*
G04 Created by KiCad (PCBNEW (5.1.2)-1) date 2019-08-24 00:01:25*
%MOMM*%
%LPD*%
G04 APERTURE LIST*
%ADD10C,0.500000*%
%ADD11C,0.100000*%
G04 APERTURE END LIST*
D10*
X144699000Y-88773000D02*
G75*
G03X144699000Y-88773000I-300000J0D01*
G01*
X146350000Y-88773000D02*
G75*
G03X146350000Y-88773000I-300000J0D01*
G01*
D11*
G36*
X140321591Y-99808085D02*
G01*
X140355569Y-99818393D01*
X140386890Y-99835134D01*
X140414339Y-99857661D01*
X140436866Y-99885110D01*
X140453607Y-99916431D01*
X140463915Y-99950409D01*
X140468000Y-99991890D01*
X140468000Y-100668110D01*
X140463915Y-100709591D01*
X140453607Y-100743569D01*
X140436866Y-100774890D01*
X140414339Y-100802339D01*
X140386890Y-100824866D01*
X140355569Y-100841607D01*
X140321591Y-100851915D01*
X140280110Y-100856000D01*
X139678890Y-100856000D01*
X139637409Y-100851915D01*
X139603431Y-100841607D01*
X139572110Y-100824866D01*
X139544661Y-100802339D01*
X139522134Y-100774890D01*
X139505393Y-100743569D01*
X139495085Y-100709591D01*
X139491000Y-100668110D01*
X139491000Y-99991890D01*
X139495085Y-99950409D01*
X139505393Y-99916431D01*
X139522134Y-99885110D01*
X139544661Y-99857661D01*
X139572110Y-99835134D01*
X139603431Y-99818393D01*
X139637409Y-99808085D01*
X139678890Y-99804000D01*
X140280110Y-99804000D01*
X140321591Y-99808085D01*
X140321591Y-99808085D01*
G37*
G36*
X138746591Y-99808085D02*
G01*
X138780569Y-99818393D01*
X138811890Y-99835134D01*
X138839339Y-99857661D01*
X138861866Y-99885110D01*
X138878607Y-99916431D01*
X138888915Y-99950409D01*
X138893000Y-99991890D01*
X138893000Y-100668110D01*
X138888915Y-100709591D01*
X138878607Y-100743569D01*
X138861866Y-100774890D01*
X138839339Y-100802339D01*
X138811890Y-100824866D01*
X138780569Y-100841607D01*
X138746591Y-100851915D01*
X138705110Y-100856000D01*
X138103890Y-100856000D01*
X138062409Y-100851915D01*
X138028431Y-100841607D01*
X137997110Y-100824866D01*
X137969661Y-100802339D01*
X137947134Y-100774890D01*
X137930393Y-100743569D01*
X137920085Y-100709591D01*
X137916000Y-100668110D01*
X137916000Y-99991890D01*
X137920085Y-99950409D01*
X137930393Y-99916431D01*
X137947134Y-99885110D01*
X137969661Y-99857661D01*
X137997110Y-99835134D01*
X138028431Y-99818393D01*
X138062409Y-99808085D01*
X138103890Y-99804000D01*
X138705110Y-99804000D01*
X138746591Y-99808085D01*
X138746591Y-99808085D01*
G37*
G36*
X137019591Y-99808085D02*
G01*
X137053569Y-99818393D01*
X137084890Y-99835134D01*
X137112339Y-99857661D01*
X137134866Y-99885110D01*
X137151607Y-99916431D01*
X137161915Y-99950409D01*
X137166000Y-99991890D01*
X137166000Y-100668110D01*
X137161915Y-100709591D01*
X137151607Y-100743569D01*
X137134866Y-100774890D01*
X137112339Y-100802339D01*
X137084890Y-100824866D01*
X137053569Y-100841607D01*
X137019591Y-100851915D01*
X136978110Y-100856000D01*
X136376890Y-100856000D01*
X136335409Y-100851915D01*
X136301431Y-100841607D01*
X136270110Y-100824866D01*
X136242661Y-100802339D01*
X136220134Y-100774890D01*
X136203393Y-100743569D01*
X136193085Y-100709591D01*
X136189000Y-100668110D01*
X136189000Y-99991890D01*
X136193085Y-99950409D01*
X136203393Y-99916431D01*
X136220134Y-99885110D01*
X136242661Y-99857661D01*
X136270110Y-99835134D01*
X136301431Y-99818393D01*
X136335409Y-99808085D01*
X136376890Y-99804000D01*
X136978110Y-99804000D01*
X137019591Y-99808085D01*
X137019591Y-99808085D01*
G37*
G36*
X135444591Y-99808085D02*
G01*
X135478569Y-99818393D01*
X135509890Y-99835134D01*
X135537339Y-99857661D01*
X135559866Y-99885110D01*
X135576607Y-99916431D01*
X135586915Y-99950409D01*
X135591000Y-99991890D01*
X135591000Y-100668110D01*
X135586915Y-100709591D01*
X135576607Y-100743569D01*
X135559866Y-100774890D01*
X135537339Y-100802339D01*
X135509890Y-100824866D01*
X135478569Y-100841607D01*
X135444591Y-100851915D01*
X135403110Y-100856000D01*
X134801890Y-100856000D01*
X134760409Y-100851915D01*
X134726431Y-100841607D01*
X134695110Y-100824866D01*
X134667661Y-100802339D01*
X134645134Y-100774890D01*
X134628393Y-100743569D01*
X134618085Y-100709591D01*
X134614000Y-100668110D01*
X134614000Y-99991890D01*
X134618085Y-99950409D01*
X134628393Y-99916431D01*
X134645134Y-99885110D01*
X134667661Y-99857661D01*
X134695110Y-99835134D01*
X134726431Y-99818393D01*
X134760409Y-99808085D01*
X134801890Y-99804000D01*
X135403110Y-99804000D01*
X135444591Y-99808085D01*
X135444591Y-99808085D01*
G37*
G36*
X133729591Y-99845585D02*
G01*
X133763569Y-99855893D01*
X133794890Y-99872634D01*
X133822339Y-99895161D01*
X133844866Y-99922610D01*
X133861607Y-99953931D01*
X133871915Y-99987909D01*
X133876000Y-100029390D01*
X133876000Y-100630610D01*
X133871915Y-100672091D01*
X133861607Y-100706069D01*
X133844866Y-100737390D01*
X133822339Y-100764839D01*
X133794890Y-100787366D01*
X133763569Y-100804107D01*
X133729591Y-100814415D01*
X133688110Y-100818500D01*
X133011890Y-100818500D01*
X132970409Y-100814415D01*
X132936431Y-100804107D01*
X132905110Y-100787366D01*
X132877661Y-100764839D01*
X132855134Y-100737390D01*
X132838393Y-100706069D01*
X132828085Y-100672091D01*
X132824000Y-100630610D01*
X132824000Y-100029390D01*
X132828085Y-99987909D01*
X132838393Y-99953931D01*
X132855134Y-99922610D01*
X132877661Y-99895161D01*
X132905110Y-99872634D01*
X132936431Y-99855893D01*
X132970409Y-99845585D01*
X133011890Y-99841500D01*
X133688110Y-99841500D01*
X133729591Y-99845585D01*
X133729591Y-99845585D01*
G37*
G36*
X145790591Y-99490085D02*
G01*
X145824569Y-99500393D01*
X145855890Y-99517134D01*
X145883339Y-99539661D01*
X145905866Y-99567110D01*
X145922607Y-99598431D01*
X145932915Y-99632409D01*
X145937000Y-99673890D01*
X145937000Y-100275110D01*
X145932915Y-100316591D01*
X145922607Y-100350569D01*
X145905866Y-100381890D01*
X145883339Y-100409339D01*
X145855890Y-100431866D01*
X145824569Y-100448607D01*
X145790591Y-100458915D01*
X145749110Y-100463000D01*
X145072890Y-100463000D01*
X145031409Y-100458915D01*
X144997431Y-100448607D01*
X144966110Y-100431866D01*
X144938661Y-100409339D01*
X144916134Y-100381890D01*
X144899393Y-100350569D01*
X144889085Y-100316591D01*
X144885000Y-100275110D01*
X144885000Y-99673890D01*
X144889085Y-99632409D01*
X144899393Y-99598431D01*
X144916134Y-99567110D01*
X144938661Y-99539661D01*
X144966110Y-99517134D01*
X144997431Y-99500393D01*
X145031409Y-99490085D01*
X145072890Y-99486000D01*
X145749110Y-99486000D01*
X145790591Y-99490085D01*
X145790591Y-99490085D01*
G37*
G36*
X132749445Y-98044000D02*
G01*
X130556000Y-100237445D01*
X128362555Y-98044000D01*
X130556000Y-95850555D01*
X132749445Y-98044000D01*
X132749445Y-98044000D01*
G37*
G36*
X140847000Y-99291000D02*
G01*
X139945000Y-99291000D01*
X139945000Y-98289000D01*
X140847000Y-98289000D01*
X140847000Y-99291000D01*
X140847000Y-99291000D01*
G37*
G36*
X138947000Y-99291000D02*
G01*
X138045000Y-99291000D01*
X138045000Y-98289000D01*
X138947000Y-98289000D01*
X138947000Y-99291000D01*
X138947000Y-99291000D01*
G37*
G36*
X137291000Y-99291000D02*
G01*
X136389000Y-99291000D01*
X136389000Y-98289000D01*
X137291000Y-98289000D01*
X137291000Y-99291000D01*
X137291000Y-99291000D01*
G37*
G36*
X135391000Y-99291000D02*
G01*
X134489000Y-99291000D01*
X134489000Y-98289000D01*
X135391000Y-98289000D01*
X135391000Y-99291000D01*
X135391000Y-99291000D01*
G37*
G36*
X133729591Y-98270585D02*
G01*
X133763569Y-98280893D01*
X133794890Y-98297634D01*
X133822339Y-98320161D01*
X133844866Y-98347610D01*
X133861607Y-98378931D01*
X133871915Y-98412909D01*
X133876000Y-98454390D01*
X133876000Y-99055610D01*
X133871915Y-99097091D01*
X133861607Y-99131069D01*
X133844866Y-99162390D01*
X133822339Y-99189839D01*
X133794890Y-99212366D01*
X133763569Y-99229107D01*
X133729591Y-99239415D01*
X133688110Y-99243500D01*
X133011890Y-99243500D01*
X132970409Y-99239415D01*
X132936431Y-99229107D01*
X132905110Y-99212366D01*
X132877661Y-99189839D01*
X132855134Y-99162390D01*
X132838393Y-99131069D01*
X132828085Y-99097091D01*
X132824000Y-99055610D01*
X132824000Y-98454390D01*
X132828085Y-98412909D01*
X132838393Y-98378931D01*
X132855134Y-98347610D01*
X132877661Y-98320161D01*
X132905110Y-98297634D01*
X132936431Y-98280893D01*
X132970409Y-98270585D01*
X133011890Y-98266500D01*
X133688110Y-98266500D01*
X133729591Y-98270585D01*
X133729591Y-98270585D01*
G37*
G36*
X148830591Y-98157085D02*
G01*
X148864569Y-98167393D01*
X148895890Y-98184134D01*
X148923339Y-98206661D01*
X148945866Y-98234110D01*
X148962607Y-98265431D01*
X148972915Y-98299409D01*
X148977000Y-98340890D01*
X148977000Y-99017110D01*
X148972915Y-99058591D01*
X148962607Y-99092569D01*
X148945866Y-99123890D01*
X148923339Y-99151339D01*
X148895890Y-99173866D01*
X148864569Y-99190607D01*
X148830591Y-99200915D01*
X148789110Y-99205000D01*
X148187890Y-99205000D01*
X148146409Y-99200915D01*
X148112431Y-99190607D01*
X148081110Y-99173866D01*
X148053661Y-99151339D01*
X148031134Y-99123890D01*
X148014393Y-99092569D01*
X148004085Y-99058591D01*
X148000000Y-99017110D01*
X148000000Y-98340890D01*
X148004085Y-98299409D01*
X148014393Y-98265431D01*
X148031134Y-98234110D01*
X148053661Y-98206661D01*
X148081110Y-98184134D01*
X148112431Y-98167393D01*
X148146409Y-98157085D01*
X148187890Y-98153000D01*
X148789110Y-98153000D01*
X148830591Y-98157085D01*
X148830591Y-98157085D01*
G37*
G36*
X147255591Y-98157085D02*
G01*
X147289569Y-98167393D01*
X147320890Y-98184134D01*
X147348339Y-98206661D01*
X147370866Y-98234110D01*
X147387607Y-98265431D01*
X147397915Y-98299409D01*
X147402000Y-98340890D01*
X147402000Y-99017110D01*
X147397915Y-99058591D01*
X147387607Y-99092569D01*
X147370866Y-99123890D01*
X147348339Y-99151339D01*
X147320890Y-99173866D01*
X147289569Y-99190607D01*
X147255591Y-99200915D01*
X147214110Y-99205000D01*
X146612890Y-99205000D01*
X146571409Y-99200915D01*
X146537431Y-99190607D01*
X146506110Y-99173866D01*
X146478661Y-99151339D01*
X146456134Y-99123890D01*
X146439393Y-99092569D01*
X146429085Y-99058591D01*
X146425000Y-99017110D01*
X146425000Y-98340890D01*
X146429085Y-98299409D01*
X146439393Y-98265431D01*
X146456134Y-98234110D01*
X146478661Y-98206661D01*
X146506110Y-98184134D01*
X146537431Y-98167393D01*
X146571409Y-98157085D01*
X146612890Y-98153000D01*
X147214110Y-98153000D01*
X147255591Y-98157085D01*
X147255591Y-98157085D01*
G37*
G36*
X142503000Y-99191000D02*
G01*
X141501000Y-99191000D01*
X141501000Y-98289000D01*
X142503000Y-98289000D01*
X142503000Y-99191000D01*
X142503000Y-99191000D01*
G37*
G36*
X145790591Y-97915085D02*
G01*
X145824569Y-97925393D01*
X145855890Y-97942134D01*
X145883339Y-97964661D01*
X145905866Y-97992110D01*
X145922607Y-98023431D01*
X145932915Y-98057409D01*
X145937000Y-98098890D01*
X145937000Y-98700110D01*
X145932915Y-98741591D01*
X145922607Y-98775569D01*
X145905866Y-98806890D01*
X145883339Y-98834339D01*
X145855890Y-98856866D01*
X145824569Y-98873607D01*
X145790591Y-98883915D01*
X145749110Y-98888000D01*
X145072890Y-98888000D01*
X145031409Y-98883915D01*
X144997431Y-98873607D01*
X144966110Y-98856866D01*
X144938661Y-98834339D01*
X144916134Y-98806890D01*
X144899393Y-98775569D01*
X144889085Y-98741591D01*
X144885000Y-98700110D01*
X144885000Y-98098890D01*
X144889085Y-98057409D01*
X144899393Y-98023431D01*
X144916134Y-97992110D01*
X144938661Y-97964661D01*
X144966110Y-97942134D01*
X144997431Y-97925393D01*
X145031409Y-97915085D01*
X145072890Y-97911000D01*
X145749110Y-97911000D01*
X145790591Y-97915085D01*
X145790591Y-97915085D01*
G37*
G36*
X144503000Y-98241000D02*
G01*
X143501000Y-98241000D01*
X143501000Y-97339000D01*
X144503000Y-97339000D01*
X144503000Y-98241000D01*
X144503000Y-98241000D01*
G37*
G36*
X151537000Y-97536000D02*
G01*
X145135000Y-97536000D01*
X145135000Y-95984000D01*
X151537000Y-95984000D01*
X151537000Y-97536000D01*
X151537000Y-97536000D01*
G37*
G36*
X142503000Y-97291000D02*
G01*
X141501000Y-97291000D01*
X141501000Y-96389000D01*
X142503000Y-96389000D01*
X142503000Y-97291000D01*
X142503000Y-97291000D01*
G37*
G36*
X136341000Y-97291000D02*
G01*
X135439000Y-97291000D01*
X135439000Y-96289000D01*
X136341000Y-96289000D01*
X136341000Y-97291000D01*
X136341000Y-97291000D01*
G37*
G36*
X139897000Y-97291000D02*
G01*
X138995000Y-97291000D01*
X138995000Y-96289000D01*
X139897000Y-96289000D01*
X139897000Y-97291000D01*
X139897000Y-97291000D01*
G37*
G36*
X128737977Y-95549855D02*
G01*
X128771955Y-95560163D01*
X128803276Y-95576904D01*
X128835490Y-95603342D01*
X128875341Y-95643193D01*
X128875347Y-95643198D01*
X129273802Y-96041653D01*
X129273807Y-96041659D01*
X129313658Y-96081510D01*
X129340096Y-96113724D01*
X129356837Y-96145045D01*
X129367145Y-96179023D01*
X129370625Y-96214364D01*
X129367145Y-96249705D01*
X129356837Y-96283683D01*
X129340096Y-96315004D01*
X129313658Y-96347218D01*
X129273807Y-96387069D01*
X129273802Y-96387075D01*
X128928381Y-96732496D01*
X128928375Y-96732501D01*
X128888524Y-96772352D01*
X128856310Y-96798790D01*
X128824989Y-96815531D01*
X128791011Y-96825839D01*
X128755670Y-96829319D01*
X128720329Y-96825839D01*
X128686351Y-96815531D01*
X128655030Y-96798790D01*
X128622816Y-96772352D01*
X128582965Y-96732501D01*
X128582959Y-96732496D01*
X128184504Y-96334041D01*
X128184499Y-96334035D01*
X128144648Y-96294184D01*
X128118210Y-96261970D01*
X128101469Y-96230649D01*
X128091161Y-96196671D01*
X128087681Y-96161330D01*
X128091161Y-96125989D01*
X128101469Y-96092011D01*
X128118210Y-96060690D01*
X128144648Y-96028476D01*
X128184499Y-95988625D01*
X128184504Y-95988619D01*
X128529925Y-95643198D01*
X128529931Y-95643193D01*
X128569782Y-95603342D01*
X128601996Y-95576904D01*
X128633317Y-95560163D01*
X128667295Y-95549855D01*
X128702636Y-95546375D01*
X128737977Y-95549855D01*
X128737977Y-95549855D01*
G37*
G36*
X144270591Y-94791085D02*
G01*
X144304569Y-94801393D01*
X144335890Y-94818134D01*
X144363339Y-94840661D01*
X144385866Y-94868110D01*
X144402607Y-94899431D01*
X144412915Y-94933409D01*
X144417000Y-94974890D01*
X144417000Y-95576110D01*
X144412915Y-95617591D01*
X144402607Y-95651569D01*
X144385866Y-95682890D01*
X144363339Y-95710339D01*
X144335890Y-95732866D01*
X144304569Y-95749607D01*
X144270591Y-95759915D01*
X144229110Y-95764000D01*
X143552890Y-95764000D01*
X143511409Y-95759915D01*
X143477431Y-95749607D01*
X143446110Y-95732866D01*
X143418661Y-95710339D01*
X143396134Y-95682890D01*
X143379393Y-95651569D01*
X143369085Y-95617591D01*
X143365000Y-95576110D01*
X143365000Y-94974890D01*
X143369085Y-94933409D01*
X143379393Y-94899431D01*
X143396134Y-94868110D01*
X143418661Y-94840661D01*
X143446110Y-94818134D01*
X143477431Y-94801393D01*
X143511409Y-94791085D01*
X143552890Y-94787000D01*
X144229110Y-94787000D01*
X144270591Y-94791085D01*
X144270591Y-94791085D01*
G37*
G36*
X142873591Y-94791085D02*
G01*
X142907569Y-94801393D01*
X142938890Y-94818134D01*
X142966339Y-94840661D01*
X142988866Y-94868110D01*
X143005607Y-94899431D01*
X143015915Y-94933409D01*
X143020000Y-94974890D01*
X143020000Y-95576110D01*
X143015915Y-95617591D01*
X143005607Y-95651569D01*
X142988866Y-95682890D01*
X142966339Y-95710339D01*
X142938890Y-95732866D01*
X142907569Y-95749607D01*
X142873591Y-95759915D01*
X142832110Y-95764000D01*
X142155890Y-95764000D01*
X142114409Y-95759915D01*
X142080431Y-95749607D01*
X142049110Y-95732866D01*
X142021661Y-95710339D01*
X141999134Y-95682890D01*
X141982393Y-95651569D01*
X141972085Y-95617591D01*
X141968000Y-95576110D01*
X141968000Y-94974890D01*
X141972085Y-94933409D01*
X141982393Y-94899431D01*
X141999134Y-94868110D01*
X142021661Y-94840661D01*
X142049110Y-94818134D01*
X142080431Y-94801393D01*
X142114409Y-94791085D01*
X142155890Y-94787000D01*
X142832110Y-94787000D01*
X142873591Y-94791085D01*
X142873591Y-94791085D01*
G37*
G36*
X129851671Y-94436161D02*
G01*
X129885649Y-94446469D01*
X129916970Y-94463210D01*
X129949184Y-94489648D01*
X129989035Y-94529499D01*
X129989041Y-94529504D01*
X130387496Y-94927959D01*
X130387501Y-94927965D01*
X130427352Y-94967816D01*
X130453790Y-95000030D01*
X130470531Y-95031351D01*
X130480839Y-95065329D01*
X130484319Y-95100670D01*
X130480839Y-95136011D01*
X130470531Y-95169989D01*
X130453790Y-95201310D01*
X130427352Y-95233524D01*
X130387501Y-95273375D01*
X130387496Y-95273381D01*
X130042075Y-95618802D01*
X130042069Y-95618807D01*
X130002218Y-95658658D01*
X129970004Y-95685096D01*
X129938683Y-95701837D01*
X129904705Y-95712145D01*
X129869364Y-95715625D01*
X129834023Y-95712145D01*
X129800045Y-95701837D01*
X129768724Y-95685096D01*
X129736510Y-95658658D01*
X129696659Y-95618807D01*
X129696653Y-95618802D01*
X129298198Y-95220347D01*
X129298193Y-95220341D01*
X129258342Y-95180490D01*
X129231904Y-95148276D01*
X129215163Y-95116955D01*
X129204855Y-95082977D01*
X129201375Y-95047636D01*
X129204855Y-95012295D01*
X129215163Y-94978317D01*
X129231904Y-94946996D01*
X129258342Y-94914782D01*
X129298193Y-94874931D01*
X129298198Y-94874925D01*
X129643619Y-94529504D01*
X129643625Y-94529499D01*
X129683476Y-94489648D01*
X129715690Y-94463210D01*
X129747011Y-94446469D01*
X129780989Y-94436161D01*
X129816330Y-94432681D01*
X129851671Y-94436161D01*
X129851671Y-94436161D01*
G37*
G36*
X128229977Y-94025855D02*
G01*
X128263955Y-94036163D01*
X128295276Y-94052904D01*
X128327490Y-94079342D01*
X128367341Y-94119193D01*
X128367347Y-94119198D01*
X128765802Y-94517653D01*
X128765807Y-94517659D01*
X128805658Y-94557510D01*
X128832096Y-94589724D01*
X128848837Y-94621045D01*
X128859145Y-94655023D01*
X128862625Y-94690364D01*
X128859145Y-94725705D01*
X128848837Y-94759683D01*
X128832096Y-94791004D01*
X128805658Y-94823218D01*
X128765807Y-94863069D01*
X128765802Y-94863075D01*
X128420381Y-95208496D01*
X128420375Y-95208501D01*
X128380524Y-95248352D01*
X128348310Y-95274790D01*
X128316989Y-95291531D01*
X128283011Y-95301839D01*
X128247670Y-95305319D01*
X128212329Y-95301839D01*
X128178351Y-95291531D01*
X128147030Y-95274790D01*
X128114816Y-95248352D01*
X128074965Y-95208501D01*
X128074959Y-95208496D01*
X127676504Y-94810041D01*
X127676499Y-94810035D01*
X127636648Y-94770184D01*
X127610210Y-94737970D01*
X127593469Y-94706649D01*
X127583161Y-94672671D01*
X127579681Y-94637330D01*
X127583161Y-94601989D01*
X127593469Y-94568011D01*
X127610210Y-94536690D01*
X127636648Y-94504476D01*
X127676499Y-94464625D01*
X127676504Y-94464619D01*
X128021925Y-94119198D01*
X128021931Y-94119193D01*
X128061782Y-94079342D01*
X128093996Y-94052904D01*
X128125317Y-94036163D01*
X128159295Y-94025855D01*
X128194636Y-94022375D01*
X128229977Y-94025855D01*
X128229977Y-94025855D01*
G37*
G36*
X129343671Y-92912161D02*
G01*
X129377649Y-92922469D01*
X129408970Y-92939210D01*
X129441184Y-92965648D01*
X129481035Y-93005499D01*
X129481041Y-93005504D01*
X129879496Y-93403959D01*
X129879501Y-93403965D01*
X129919352Y-93443816D01*
X129945790Y-93476030D01*
X129962531Y-93507351D01*
X129972839Y-93541329D01*
X129976319Y-93576670D01*
X129972839Y-93612011D01*
X129962531Y-93645989D01*
X129945790Y-93677310D01*
X129919352Y-93709524D01*
X129879501Y-93749375D01*
X129879496Y-93749381D01*
X129534075Y-94094802D01*
X129534069Y-94094807D01*
X129494218Y-94134658D01*
X129462004Y-94161096D01*
X129430683Y-94177837D01*
X129396705Y-94188145D01*
X129361364Y-94191625D01*
X129326023Y-94188145D01*
X129292045Y-94177837D01*
X129260724Y-94161096D01*
X129228510Y-94134658D01*
X129188659Y-94094807D01*
X129188653Y-94094802D01*
X128790198Y-93696347D01*
X128790193Y-93696341D01*
X128750342Y-93656490D01*
X128723904Y-93624276D01*
X128707163Y-93592955D01*
X128696855Y-93558977D01*
X128693375Y-93523636D01*
X128696855Y-93488295D01*
X128707163Y-93454317D01*
X128723904Y-93422996D01*
X128750342Y-93390782D01*
X128790193Y-93350931D01*
X128790198Y-93350925D01*
X129135619Y-93005504D01*
X129135625Y-93005499D01*
X129175476Y-92965648D01*
X129207690Y-92939210D01*
X129239011Y-92922469D01*
X129272989Y-92912161D01*
X129308330Y-92908681D01*
X129343671Y-92912161D01*
X129343671Y-92912161D01*
G37*
G36*
X144270591Y-93216085D02*
G01*
X144304569Y-93226393D01*
X144335890Y-93243134D01*
X144363339Y-93265661D01*
X144385866Y-93293110D01*
X144402607Y-93324431D01*
X144412915Y-93358409D01*
X144417000Y-93399890D01*
X144417000Y-94001110D01*
X144412915Y-94042591D01*
X144402607Y-94076569D01*
X144385866Y-94107890D01*
X144363339Y-94135339D01*
X144335890Y-94157866D01*
X144304569Y-94174607D01*
X144270591Y-94184915D01*
X144229110Y-94189000D01*
X143552890Y-94189000D01*
X143511409Y-94184915D01*
X143477431Y-94174607D01*
X143446110Y-94157866D01*
X143418661Y-94135339D01*
X143396134Y-94107890D01*
X143379393Y-94076569D01*
X143369085Y-94042591D01*
X143365000Y-94001110D01*
X143365000Y-93399890D01*
X143369085Y-93358409D01*
X143379393Y-93324431D01*
X143396134Y-93293110D01*
X143418661Y-93265661D01*
X143446110Y-93243134D01*
X143477431Y-93226393D01*
X143511409Y-93216085D01*
X143552890Y-93212000D01*
X144229110Y-93212000D01*
X144270591Y-93216085D01*
X144270591Y-93216085D01*
G37*
G36*
X142873591Y-93216085D02*
G01*
X142907569Y-93226393D01*
X142938890Y-93243134D01*
X142966339Y-93265661D01*
X142988866Y-93293110D01*
X143005607Y-93324431D01*
X143015915Y-93358409D01*
X143020000Y-93399890D01*
X143020000Y-94001110D01*
X143015915Y-94042591D01*
X143005607Y-94076569D01*
X142988866Y-94107890D01*
X142966339Y-94135339D01*
X142938890Y-94157866D01*
X142907569Y-94174607D01*
X142873591Y-94184915D01*
X142832110Y-94189000D01*
X142155890Y-94189000D01*
X142114409Y-94184915D01*
X142080431Y-94174607D01*
X142049110Y-94157866D01*
X142021661Y-94135339D01*
X141999134Y-94107890D01*
X141982393Y-94076569D01*
X141972085Y-94042591D01*
X141968000Y-94001110D01*
X141968000Y-93399890D01*
X141972085Y-93358409D01*
X141982393Y-93324431D01*
X141999134Y-93293110D01*
X142021661Y-93265661D01*
X142049110Y-93243134D01*
X142080431Y-93226393D01*
X142114409Y-93216085D01*
X142155890Y-93212000D01*
X142832110Y-93212000D01*
X142873591Y-93216085D01*
X142873591Y-93216085D01*
G37*
G36*
X143458564Y-89849389D02*
G01*
X143649833Y-89928615D01*
X143649835Y-89928616D01*
X143762791Y-90004091D01*
X143821973Y-90043635D01*
X143968365Y-90190027D01*
X144083385Y-90362167D01*
X144162611Y-90553436D01*
X144203000Y-90756484D01*
X144203000Y-90963516D01*
X144162611Y-91166564D01*
X144083385Y-91357833D01*
X144083384Y-91357835D01*
X143968365Y-91529973D01*
X143821973Y-91676365D01*
X143649835Y-91791384D01*
X143649834Y-91791385D01*
X143649833Y-91791385D01*
X143458564Y-91870611D01*
X143255516Y-91911000D01*
X143048484Y-91911000D01*
X142845436Y-91870611D01*
X142654167Y-91791385D01*
X142654166Y-91791385D01*
X142654165Y-91791384D01*
X142482027Y-91676365D01*
X142335635Y-91529973D01*
X142220616Y-91357835D01*
X142220615Y-91357833D01*
X142141389Y-91166564D01*
X142101000Y-90963516D01*
X142101000Y-90756484D01*
X142141389Y-90553436D01*
X142220615Y-90362167D01*
X142335635Y-90190027D01*
X142482027Y-90043635D01*
X142541209Y-90004091D01*
X142654165Y-89928616D01*
X142654167Y-89928615D01*
X142845436Y-89849389D01*
X143048484Y-89809000D01*
X143255516Y-89809000D01*
X143458564Y-89849389D01*
X143458564Y-89849389D01*
G37*
G36*
X136958564Y-89849389D02*
G01*
X137149833Y-89928615D01*
X137149835Y-89928616D01*
X137262791Y-90004091D01*
X137321973Y-90043635D01*
X137468365Y-90190027D01*
X137583385Y-90362167D01*
X137662611Y-90553436D01*
X137703000Y-90756484D01*
X137703000Y-90963516D01*
X137662611Y-91166564D01*
X137583385Y-91357833D01*
X137583384Y-91357835D01*
X137468365Y-91529973D01*
X137321973Y-91676365D01*
X137149835Y-91791384D01*
X137149834Y-91791385D01*
X137149833Y-91791385D01*
X136958564Y-91870611D01*
X136755516Y-91911000D01*
X136548484Y-91911000D01*
X136345436Y-91870611D01*
X136154167Y-91791385D01*
X136154166Y-91791385D01*
X136154165Y-91791384D01*
X135982027Y-91676365D01*
X135835635Y-91529973D01*
X135720616Y-91357835D01*
X135720615Y-91357833D01*
X135641389Y-91166564D01*
X135601000Y-90963516D01*
X135601000Y-90756484D01*
X135641389Y-90553436D01*
X135720615Y-90362167D01*
X135835635Y-90190027D01*
X135982027Y-90043635D01*
X136041209Y-90004091D01*
X136154165Y-89928616D01*
X136154167Y-89928615D01*
X136345436Y-89849389D01*
X136548484Y-89809000D01*
X136755516Y-89809000D01*
X136958564Y-89849389D01*
X136958564Y-89849389D01*
G37*
G36*
X151537000Y-91636000D02*
G01*
X145135000Y-91636000D01*
X145135000Y-90084000D01*
X151537000Y-90084000D01*
X151537000Y-91636000D01*
X151537000Y-91636000D01*
G37*
G36*
X128649591Y-89177585D02*
G01*
X128683569Y-89187893D01*
X128714890Y-89204634D01*
X128742339Y-89227161D01*
X128764866Y-89254610D01*
X128781607Y-89285931D01*
X128791915Y-89319909D01*
X128796000Y-89361390D01*
X128796000Y-89962610D01*
X128791915Y-90004091D01*
X128781607Y-90038069D01*
X128764866Y-90069390D01*
X128742339Y-90096839D01*
X128714890Y-90119366D01*
X128683569Y-90136107D01*
X128649591Y-90146415D01*
X128608110Y-90150500D01*
X127931890Y-90150500D01*
X127890409Y-90146415D01*
X127856431Y-90136107D01*
X127825110Y-90119366D01*
X127797661Y-90096839D01*
X127775134Y-90069390D01*
X127758393Y-90038069D01*
X127748085Y-90004091D01*
X127744000Y-89962610D01*
X127744000Y-89361390D01*
X127748085Y-89319909D01*
X127758393Y-89285931D01*
X127775134Y-89254610D01*
X127797661Y-89227161D01*
X127825110Y-89204634D01*
X127856431Y-89187893D01*
X127890409Y-89177585D01*
X127931890Y-89173500D01*
X128608110Y-89173500D01*
X128649591Y-89177585D01*
X128649591Y-89177585D01*
G37*
G36*
X130311000Y-90047000D02*
G01*
X129309000Y-90047000D01*
X129309000Y-89145000D01*
X130311000Y-89145000D01*
X130311000Y-90047000D01*
X130311000Y-90047000D01*
G37*
G36*
X132311000Y-89097000D02*
G01*
X131309000Y-89097000D01*
X131309000Y-88195000D01*
X132311000Y-88195000D01*
X132311000Y-89097000D01*
X132311000Y-89097000D01*
G37*
G36*
X128649591Y-87602585D02*
G01*
X128683569Y-87612893D01*
X128714890Y-87629634D01*
X128742339Y-87652161D01*
X128764866Y-87679610D01*
X128781607Y-87710931D01*
X128791915Y-87744909D01*
X128796000Y-87786390D01*
X128796000Y-88387610D01*
X128791915Y-88429091D01*
X128781607Y-88463069D01*
X128764866Y-88494390D01*
X128742339Y-88521839D01*
X128714890Y-88544366D01*
X128683569Y-88561107D01*
X128649591Y-88571415D01*
X128608110Y-88575500D01*
X127931890Y-88575500D01*
X127890409Y-88571415D01*
X127856431Y-88561107D01*
X127825110Y-88544366D01*
X127797661Y-88521839D01*
X127775134Y-88494390D01*
X127758393Y-88463069D01*
X127748085Y-88429091D01*
X127744000Y-88387610D01*
X127744000Y-87786390D01*
X127748085Y-87744909D01*
X127758393Y-87710931D01*
X127775134Y-87679610D01*
X127797661Y-87652161D01*
X127825110Y-87629634D01*
X127856431Y-87612893D01*
X127890409Y-87602585D01*
X127931890Y-87598500D01*
X128608110Y-87598500D01*
X128649591Y-87602585D01*
X128649591Y-87602585D01*
G37*
G36*
X130311000Y-88147000D02*
G01*
X129309000Y-88147000D01*
X129309000Y-87245000D01*
X130311000Y-87245000D01*
X130311000Y-88147000D01*
X130311000Y-88147000D01*
G37*
G36*
X143458564Y-85349389D02*
G01*
X143649833Y-85428615D01*
X143649835Y-85428616D01*
X143821973Y-85543635D01*
X143968365Y-85690027D01*
X144015287Y-85760250D01*
X144083385Y-85862167D01*
X144162611Y-86053436D01*
X144203000Y-86256484D01*
X144203000Y-86463516D01*
X144162611Y-86666564D01*
X144083385Y-86857833D01*
X144083384Y-86857835D01*
X143968365Y-87029973D01*
X143821973Y-87176365D01*
X143649835Y-87291384D01*
X143649834Y-87291385D01*
X143649833Y-87291385D01*
X143458564Y-87370611D01*
X143255516Y-87411000D01*
X143048484Y-87411000D01*
X142845436Y-87370611D01*
X142654167Y-87291385D01*
X142654166Y-87291385D01*
X142654165Y-87291384D01*
X142482027Y-87176365D01*
X142335635Y-87029973D01*
X142220616Y-86857835D01*
X142220615Y-86857833D01*
X142141389Y-86666564D01*
X142101000Y-86463516D01*
X142101000Y-86256484D01*
X142141389Y-86053436D01*
X142220615Y-85862167D01*
X142288714Y-85760250D01*
X142335635Y-85690027D01*
X142482027Y-85543635D01*
X142654165Y-85428616D01*
X142654167Y-85428615D01*
X142845436Y-85349389D01*
X143048484Y-85309000D01*
X143255516Y-85309000D01*
X143458564Y-85349389D01*
X143458564Y-85349389D01*
G37*
G36*
X136958564Y-85349389D02*
G01*
X137149833Y-85428615D01*
X137149835Y-85428616D01*
X137321973Y-85543635D01*
X137468365Y-85690027D01*
X137515287Y-85760250D01*
X137583385Y-85862167D01*
X137662611Y-86053436D01*
X137703000Y-86256484D01*
X137703000Y-86463516D01*
X137662611Y-86666564D01*
X137583385Y-86857833D01*
X137583384Y-86857835D01*
X137468365Y-87029973D01*
X137321973Y-87176365D01*
X137149835Y-87291384D01*
X137149834Y-87291385D01*
X137149833Y-87291385D01*
X136958564Y-87370611D01*
X136755516Y-87411000D01*
X136548484Y-87411000D01*
X136345436Y-87370611D01*
X136154167Y-87291385D01*
X136154166Y-87291385D01*
X136154165Y-87291384D01*
X135982027Y-87176365D01*
X135835635Y-87029973D01*
X135720616Y-86857835D01*
X135720615Y-86857833D01*
X135641389Y-86666564D01*
X135601000Y-86463516D01*
X135601000Y-86256484D01*
X135641389Y-86053436D01*
X135720615Y-85862167D01*
X135788714Y-85760250D01*
X135835635Y-85690027D01*
X135982027Y-85543635D01*
X136154165Y-85428616D01*
X136154167Y-85428615D01*
X136345436Y-85349389D01*
X136548484Y-85309000D01*
X136755516Y-85309000D01*
X136958564Y-85349389D01*
X136958564Y-85349389D01*
G37*
G36*
X132078591Y-85520085D02*
G01*
X132112569Y-85530393D01*
X132143890Y-85547134D01*
X132171339Y-85569661D01*
X132193866Y-85597110D01*
X132210607Y-85628431D01*
X132220915Y-85662409D01*
X132225000Y-85703890D01*
X132225000Y-86305110D01*
X132220915Y-86346591D01*
X132210607Y-86380569D01*
X132193866Y-86411890D01*
X132171339Y-86439339D01*
X132143890Y-86461866D01*
X132112569Y-86478607D01*
X132078591Y-86488915D01*
X132037110Y-86493000D01*
X131360890Y-86493000D01*
X131319409Y-86488915D01*
X131285431Y-86478607D01*
X131254110Y-86461866D01*
X131226661Y-86439339D01*
X131204134Y-86411890D01*
X131187393Y-86380569D01*
X131177085Y-86346591D01*
X131173000Y-86305110D01*
X131173000Y-85703890D01*
X131177085Y-85662409D01*
X131187393Y-85628431D01*
X131204134Y-85597110D01*
X131226661Y-85569661D01*
X131254110Y-85547134D01*
X131285431Y-85530393D01*
X131319409Y-85520085D01*
X131360890Y-85516000D01*
X132037110Y-85516000D01*
X132078591Y-85520085D01*
X132078591Y-85520085D01*
G37*
G36*
X130787000Y-86491000D02*
G01*
X129785000Y-86491000D01*
X129785000Y-85589000D01*
X130787000Y-85589000D01*
X130787000Y-86491000D01*
X130787000Y-86491000D01*
G37*
G36*
X128787000Y-85541000D02*
G01*
X127785000Y-85541000D01*
X127785000Y-84639000D01*
X128787000Y-84639000D01*
X128787000Y-85541000D01*
X128787000Y-85541000D01*
G37*
G36*
X145347203Y-82034184D02*
G01*
X145497028Y-82063986D01*
X145779292Y-82180903D01*
X146033323Y-82350641D01*
X146249359Y-82566677D01*
X146419097Y-82820708D01*
X146536014Y-83102972D01*
X146595618Y-83402622D01*
X146595618Y-83708142D01*
X146536014Y-84007792D01*
X146419097Y-84290056D01*
X146249359Y-84544087D01*
X146033323Y-84760123D01*
X145779292Y-84929861D01*
X145497028Y-85046778D01*
X145347203Y-85076580D01*
X145197379Y-85106382D01*
X144891857Y-85106382D01*
X144742033Y-85076580D01*
X144592208Y-85046778D01*
X144309944Y-84929861D01*
X144055913Y-84760123D01*
X143839877Y-84544087D01*
X143670139Y-84290056D01*
X143553222Y-84007792D01*
X143493618Y-83708142D01*
X143493618Y-83402622D01*
X143553222Y-83102972D01*
X143670139Y-82820708D01*
X143839877Y-82566677D01*
X144055913Y-82350641D01*
X144309944Y-82180903D01*
X144592208Y-82063986D01*
X144742033Y-82034184D01*
X144891857Y-82004382D01*
X145197379Y-82004382D01*
X145347203Y-82034184D01*
X145347203Y-82034184D01*
G37*
G36*
X132078591Y-83945085D02*
G01*
X132112569Y-83955393D01*
X132143890Y-83972134D01*
X132171339Y-83994661D01*
X132193866Y-84022110D01*
X132210607Y-84053431D01*
X132220915Y-84087409D01*
X132225000Y-84128890D01*
X132225000Y-84730110D01*
X132220915Y-84771591D01*
X132210607Y-84805569D01*
X132193866Y-84836890D01*
X132171339Y-84864339D01*
X132143890Y-84886866D01*
X132112569Y-84903607D01*
X132078591Y-84913915D01*
X132037110Y-84918000D01*
X131360890Y-84918000D01*
X131319409Y-84913915D01*
X131285431Y-84903607D01*
X131254110Y-84886866D01*
X131226661Y-84864339D01*
X131204134Y-84836890D01*
X131187393Y-84805569D01*
X131177085Y-84771591D01*
X131173000Y-84730110D01*
X131173000Y-84128890D01*
X131177085Y-84087409D01*
X131187393Y-84053431D01*
X131204134Y-84022110D01*
X131226661Y-83994661D01*
X131254110Y-83972134D01*
X131285431Y-83955393D01*
X131319409Y-83945085D01*
X131360890Y-83941000D01*
X132037110Y-83941000D01*
X132078591Y-83945085D01*
X132078591Y-83945085D01*
G37*
G36*
X130787000Y-84591000D02*
G01*
X129785000Y-84591000D01*
X129785000Y-83689000D01*
X130787000Y-83689000D01*
X130787000Y-84591000D01*
X130787000Y-84591000D01*
G37*
G36*
X149428468Y-79651565D02*
G01*
X149467138Y-79663296D01*
X149502777Y-79682346D01*
X149534017Y-79707983D01*
X149559654Y-79739223D01*
X149578704Y-79774862D01*
X149590435Y-79813532D01*
X149595000Y-79859888D01*
X149595000Y-80511112D01*
X149590435Y-80557468D01*
X149578704Y-80596138D01*
X149559654Y-80631777D01*
X149534017Y-80663017D01*
X149502777Y-80688654D01*
X149467138Y-80707704D01*
X149428468Y-80719435D01*
X149382112Y-80724000D01*
X148305888Y-80724000D01*
X148259532Y-80719435D01*
X148220862Y-80707704D01*
X148185223Y-80688654D01*
X148153983Y-80663017D01*
X148128346Y-80631777D01*
X148109296Y-80596138D01*
X148097565Y-80557468D01*
X148093000Y-80511112D01*
X148093000Y-79859888D01*
X148097565Y-79813532D01*
X148109296Y-79774862D01*
X148128346Y-79739223D01*
X148153983Y-79707983D01*
X148185223Y-79682346D01*
X148220862Y-79663296D01*
X148259532Y-79651565D01*
X148305888Y-79647000D01*
X149382112Y-79647000D01*
X149428468Y-79651565D01*
X149428468Y-79651565D01*
G37*
G36*
X140284468Y-79651565D02*
G01*
X140323138Y-79663296D01*
X140358777Y-79682346D01*
X140390017Y-79707983D01*
X140415654Y-79739223D01*
X140434704Y-79774862D01*
X140446435Y-79813532D01*
X140451000Y-79859888D01*
X140451000Y-80511112D01*
X140446435Y-80557468D01*
X140434704Y-80596138D01*
X140415654Y-80631777D01*
X140390017Y-80663017D01*
X140358777Y-80688654D01*
X140323138Y-80707704D01*
X140284468Y-80719435D01*
X140238112Y-80724000D01*
X139161888Y-80724000D01*
X139115532Y-80719435D01*
X139076862Y-80707704D01*
X139041223Y-80688654D01*
X139009983Y-80663017D01*
X138984346Y-80631777D01*
X138965296Y-80596138D01*
X138953565Y-80557468D01*
X138949000Y-80511112D01*
X138949000Y-79859888D01*
X138953565Y-79813532D01*
X138965296Y-79774862D01*
X138984346Y-79739223D01*
X139009983Y-79707983D01*
X139041223Y-79682346D01*
X139076862Y-79663296D01*
X139115532Y-79651565D01*
X139161888Y-79647000D01*
X140238112Y-79647000D01*
X140284468Y-79651565D01*
X140284468Y-79651565D01*
G37*
G36*
X144856468Y-79651565D02*
G01*
X144895138Y-79663296D01*
X144930777Y-79682346D01*
X144962017Y-79707983D01*
X144987654Y-79739223D01*
X145006704Y-79774862D01*
X145018435Y-79813532D01*
X145023000Y-79859888D01*
X145023000Y-80511112D01*
X145018435Y-80557468D01*
X145006704Y-80596138D01*
X144987654Y-80631777D01*
X144962017Y-80663017D01*
X144930777Y-80688654D01*
X144895138Y-80707704D01*
X144856468Y-80719435D01*
X144810112Y-80724000D01*
X143733888Y-80724000D01*
X143687532Y-80719435D01*
X143648862Y-80707704D01*
X143613223Y-80688654D01*
X143581983Y-80663017D01*
X143556346Y-80631777D01*
X143537296Y-80596138D01*
X143525565Y-80557468D01*
X143521000Y-80511112D01*
X143521000Y-79859888D01*
X143525565Y-79813532D01*
X143537296Y-79774862D01*
X143556346Y-79739223D01*
X143581983Y-79707983D01*
X143613223Y-79682346D01*
X143648862Y-79663296D01*
X143687532Y-79651565D01*
X143733888Y-79647000D01*
X144810112Y-79647000D01*
X144856468Y-79651565D01*
X144856468Y-79651565D01*
G37*
G36*
X131140468Y-79651565D02*
G01*
X131179138Y-79663296D01*
X131214777Y-79682346D01*
X131246017Y-79707983D01*
X131271654Y-79739223D01*
X131290704Y-79774862D01*
X131302435Y-79813532D01*
X131307000Y-79859888D01*
X131307000Y-80511112D01*
X131302435Y-80557468D01*
X131290704Y-80596138D01*
X131271654Y-80631777D01*
X131246017Y-80663017D01*
X131214777Y-80688654D01*
X131179138Y-80707704D01*
X131140468Y-80719435D01*
X131094112Y-80724000D01*
X130017888Y-80724000D01*
X129971532Y-80719435D01*
X129932862Y-80707704D01*
X129897223Y-80688654D01*
X129865983Y-80663017D01*
X129840346Y-80631777D01*
X129821296Y-80596138D01*
X129809565Y-80557468D01*
X129805000Y-80511112D01*
X129805000Y-79859888D01*
X129809565Y-79813532D01*
X129821296Y-79774862D01*
X129840346Y-79739223D01*
X129865983Y-79707983D01*
X129897223Y-79682346D01*
X129932862Y-79663296D01*
X129971532Y-79651565D01*
X130017888Y-79647000D01*
X131094112Y-79647000D01*
X131140468Y-79651565D01*
X131140468Y-79651565D01*
G37*
G36*
X135712468Y-79651565D02*
G01*
X135751138Y-79663296D01*
X135786777Y-79682346D01*
X135818017Y-79707983D01*
X135843654Y-79739223D01*
X135862704Y-79774862D01*
X135874435Y-79813532D01*
X135879000Y-79859888D01*
X135879000Y-80511112D01*
X135874435Y-80557468D01*
X135862704Y-80596138D01*
X135843654Y-80631777D01*
X135818017Y-80663017D01*
X135786777Y-80688654D01*
X135751138Y-80707704D01*
X135712468Y-80719435D01*
X135666112Y-80724000D01*
X134589888Y-80724000D01*
X134543532Y-80719435D01*
X134504862Y-80707704D01*
X134469223Y-80688654D01*
X134437983Y-80663017D01*
X134412346Y-80631777D01*
X134393296Y-80596138D01*
X134381565Y-80557468D01*
X134377000Y-80511112D01*
X134377000Y-79859888D01*
X134381565Y-79813532D01*
X134393296Y-79774862D01*
X134412346Y-79739223D01*
X134437983Y-79707983D01*
X134469223Y-79682346D01*
X134504862Y-79663296D01*
X134543532Y-79651565D01*
X134589888Y-79647000D01*
X135666112Y-79647000D01*
X135712468Y-79651565D01*
X135712468Y-79651565D01*
G37*
G36*
X137539591Y-79551085D02*
G01*
X137573569Y-79561393D01*
X137604890Y-79578134D01*
X137632339Y-79600661D01*
X137654866Y-79628110D01*
X137671607Y-79659431D01*
X137681915Y-79693409D01*
X137686000Y-79734890D01*
X137686000Y-80336110D01*
X137681915Y-80377591D01*
X137671607Y-80411569D01*
X137654866Y-80442890D01*
X137632339Y-80470339D01*
X137604890Y-80492866D01*
X137573569Y-80509607D01*
X137539591Y-80519915D01*
X137498110Y-80524000D01*
X136821890Y-80524000D01*
X136780409Y-80519915D01*
X136746431Y-80509607D01*
X136715110Y-80492866D01*
X136687661Y-80470339D01*
X136665134Y-80442890D01*
X136648393Y-80411569D01*
X136638085Y-80377591D01*
X136634000Y-80336110D01*
X136634000Y-79734890D01*
X136638085Y-79693409D01*
X136648393Y-79659431D01*
X136665134Y-79628110D01*
X136687661Y-79600661D01*
X136715110Y-79578134D01*
X136746431Y-79561393D01*
X136780409Y-79551085D01*
X136821890Y-79547000D01*
X137498110Y-79547000D01*
X137539591Y-79551085D01*
X137539591Y-79551085D01*
G37*
G36*
X146683591Y-79551085D02*
G01*
X146717569Y-79561393D01*
X146748890Y-79578134D01*
X146776339Y-79600661D01*
X146798866Y-79628110D01*
X146815607Y-79659431D01*
X146825915Y-79693409D01*
X146830000Y-79734890D01*
X146830000Y-80336110D01*
X146825915Y-80377591D01*
X146815607Y-80411569D01*
X146798866Y-80442890D01*
X146776339Y-80470339D01*
X146748890Y-80492866D01*
X146717569Y-80509607D01*
X146683591Y-80519915D01*
X146642110Y-80524000D01*
X145965890Y-80524000D01*
X145924409Y-80519915D01*
X145890431Y-80509607D01*
X145859110Y-80492866D01*
X145831661Y-80470339D01*
X145809134Y-80442890D01*
X145792393Y-80411569D01*
X145782085Y-80377591D01*
X145778000Y-80336110D01*
X145778000Y-79734890D01*
X145782085Y-79693409D01*
X145792393Y-79659431D01*
X145809134Y-79628110D01*
X145831661Y-79600661D01*
X145859110Y-79578134D01*
X145890431Y-79561393D01*
X145924409Y-79551085D01*
X145965890Y-79547000D01*
X146642110Y-79547000D01*
X146683591Y-79551085D01*
X146683591Y-79551085D01*
G37*
G36*
X132967591Y-79551085D02*
G01*
X133001569Y-79561393D01*
X133032890Y-79578134D01*
X133060339Y-79600661D01*
X133082866Y-79628110D01*
X133099607Y-79659431D01*
X133109915Y-79693409D01*
X133114000Y-79734890D01*
X133114000Y-80336110D01*
X133109915Y-80377591D01*
X133099607Y-80411569D01*
X133082866Y-80442890D01*
X133060339Y-80470339D01*
X133032890Y-80492866D01*
X133001569Y-80509607D01*
X132967591Y-80519915D01*
X132926110Y-80524000D01*
X132249890Y-80524000D01*
X132208409Y-80519915D01*
X132174431Y-80509607D01*
X132143110Y-80492866D01*
X132115661Y-80470339D01*
X132093134Y-80442890D01*
X132076393Y-80411569D01*
X132066085Y-80377591D01*
X132062000Y-80336110D01*
X132062000Y-79734890D01*
X132066085Y-79693409D01*
X132076393Y-79659431D01*
X132093134Y-79628110D01*
X132115661Y-79600661D01*
X132143110Y-79578134D01*
X132174431Y-79561393D01*
X132208409Y-79551085D01*
X132249890Y-79547000D01*
X132926110Y-79547000D01*
X132967591Y-79551085D01*
X132967591Y-79551085D01*
G37*
G36*
X142111591Y-79551085D02*
G01*
X142145569Y-79561393D01*
X142176890Y-79578134D01*
X142204339Y-79600661D01*
X142226866Y-79628110D01*
X142243607Y-79659431D01*
X142253915Y-79693409D01*
X142258000Y-79734890D01*
X142258000Y-80336110D01*
X142253915Y-80377591D01*
X142243607Y-80411569D01*
X142226866Y-80442890D01*
X142204339Y-80470339D01*
X142176890Y-80492866D01*
X142145569Y-80509607D01*
X142111591Y-80519915D01*
X142070110Y-80524000D01*
X141393890Y-80524000D01*
X141352409Y-80519915D01*
X141318431Y-80509607D01*
X141287110Y-80492866D01*
X141259661Y-80470339D01*
X141237134Y-80442890D01*
X141220393Y-80411569D01*
X141210085Y-80377591D01*
X141206000Y-80336110D01*
X141206000Y-79734890D01*
X141210085Y-79693409D01*
X141220393Y-79659431D01*
X141237134Y-79628110D01*
X141259661Y-79600661D01*
X141287110Y-79578134D01*
X141318431Y-79561393D01*
X141352409Y-79551085D01*
X141393890Y-79547000D01*
X142070110Y-79547000D01*
X142111591Y-79551085D01*
X142111591Y-79551085D01*
G37*
G36*
X151255591Y-79551085D02*
G01*
X151289569Y-79561393D01*
X151320890Y-79578134D01*
X151348339Y-79600661D01*
X151370866Y-79628110D01*
X151387607Y-79659431D01*
X151397915Y-79693409D01*
X151402000Y-79734890D01*
X151402000Y-80336110D01*
X151397915Y-80377591D01*
X151387607Y-80411569D01*
X151370866Y-80442890D01*
X151348339Y-80470339D01*
X151320890Y-80492866D01*
X151289569Y-80509607D01*
X151255591Y-80519915D01*
X151214110Y-80524000D01*
X150537890Y-80524000D01*
X150496409Y-80519915D01*
X150462431Y-80509607D01*
X150431110Y-80492866D01*
X150403661Y-80470339D01*
X150381134Y-80442890D01*
X150364393Y-80411569D01*
X150354085Y-80377591D01*
X150350000Y-80336110D01*
X150350000Y-79734890D01*
X150354085Y-79693409D01*
X150364393Y-79659431D01*
X150381134Y-79628110D01*
X150403661Y-79600661D01*
X150431110Y-79578134D01*
X150462431Y-79561393D01*
X150496409Y-79551085D01*
X150537890Y-79547000D01*
X151214110Y-79547000D01*
X151255591Y-79551085D01*
X151255591Y-79551085D01*
G37*
G36*
X137539591Y-77976085D02*
G01*
X137573569Y-77986393D01*
X137604890Y-78003134D01*
X137632339Y-78025661D01*
X137654866Y-78053110D01*
X137671607Y-78084431D01*
X137681915Y-78118409D01*
X137686000Y-78159890D01*
X137686000Y-78761110D01*
X137681915Y-78802591D01*
X137671607Y-78836569D01*
X137654866Y-78867890D01*
X137632339Y-78895339D01*
X137604890Y-78917866D01*
X137573569Y-78934607D01*
X137539591Y-78944915D01*
X137498110Y-78949000D01*
X136821890Y-78949000D01*
X136780409Y-78944915D01*
X136746431Y-78934607D01*
X136715110Y-78917866D01*
X136687661Y-78895339D01*
X136665134Y-78867890D01*
X136648393Y-78836569D01*
X136638085Y-78802591D01*
X136634000Y-78761110D01*
X136634000Y-78159890D01*
X136638085Y-78118409D01*
X136648393Y-78084431D01*
X136665134Y-78053110D01*
X136687661Y-78025661D01*
X136715110Y-78003134D01*
X136746431Y-77986393D01*
X136780409Y-77976085D01*
X136821890Y-77972000D01*
X137498110Y-77972000D01*
X137539591Y-77976085D01*
X137539591Y-77976085D01*
G37*
G36*
X151255591Y-77976085D02*
G01*
X151289569Y-77986393D01*
X151320890Y-78003134D01*
X151348339Y-78025661D01*
X151370866Y-78053110D01*
X151387607Y-78084431D01*
X151397915Y-78118409D01*
X151402000Y-78159890D01*
X151402000Y-78761110D01*
X151397915Y-78802591D01*
X151387607Y-78836569D01*
X151370866Y-78867890D01*
X151348339Y-78895339D01*
X151320890Y-78917866D01*
X151289569Y-78934607D01*
X151255591Y-78944915D01*
X151214110Y-78949000D01*
X150537890Y-78949000D01*
X150496409Y-78944915D01*
X150462431Y-78934607D01*
X150431110Y-78917866D01*
X150403661Y-78895339D01*
X150381134Y-78867890D01*
X150364393Y-78836569D01*
X150354085Y-78802591D01*
X150350000Y-78761110D01*
X150350000Y-78159890D01*
X150354085Y-78118409D01*
X150364393Y-78084431D01*
X150381134Y-78053110D01*
X150403661Y-78025661D01*
X150431110Y-78003134D01*
X150462431Y-77986393D01*
X150496409Y-77976085D01*
X150537890Y-77972000D01*
X151214110Y-77972000D01*
X151255591Y-77976085D01*
X151255591Y-77976085D01*
G37*
G36*
X132967591Y-77976085D02*
G01*
X133001569Y-77986393D01*
X133032890Y-78003134D01*
X133060339Y-78025661D01*
X133082866Y-78053110D01*
X133099607Y-78084431D01*
X133109915Y-78118409D01*
X133114000Y-78159890D01*
X133114000Y-78761110D01*
X133109915Y-78802591D01*
X133099607Y-78836569D01*
X133082866Y-78867890D01*
X133060339Y-78895339D01*
X133032890Y-78917866D01*
X133001569Y-78934607D01*
X132967591Y-78944915D01*
X132926110Y-78949000D01*
X132249890Y-78949000D01*
X132208409Y-78944915D01*
X132174431Y-78934607D01*
X132143110Y-78917866D01*
X132115661Y-78895339D01*
X132093134Y-78867890D01*
X132076393Y-78836569D01*
X132066085Y-78802591D01*
X132062000Y-78761110D01*
X132062000Y-78159890D01*
X132066085Y-78118409D01*
X132076393Y-78084431D01*
X132093134Y-78053110D01*
X132115661Y-78025661D01*
X132143110Y-78003134D01*
X132174431Y-77986393D01*
X132208409Y-77976085D01*
X132249890Y-77972000D01*
X132926110Y-77972000D01*
X132967591Y-77976085D01*
X132967591Y-77976085D01*
G37*
G36*
X142111591Y-77976085D02*
G01*
X142145569Y-77986393D01*
X142176890Y-78003134D01*
X142204339Y-78025661D01*
X142226866Y-78053110D01*
X142243607Y-78084431D01*
X142253915Y-78118409D01*
X142258000Y-78159890D01*
X142258000Y-78761110D01*
X142253915Y-78802591D01*
X142243607Y-78836569D01*
X142226866Y-78867890D01*
X142204339Y-78895339D01*
X142176890Y-78917866D01*
X142145569Y-78934607D01*
X142111591Y-78944915D01*
X142070110Y-78949000D01*
X141393890Y-78949000D01*
X141352409Y-78944915D01*
X141318431Y-78934607D01*
X141287110Y-78917866D01*
X141259661Y-78895339D01*
X141237134Y-78867890D01*
X141220393Y-78836569D01*
X141210085Y-78802591D01*
X141206000Y-78761110D01*
X141206000Y-78159890D01*
X141210085Y-78118409D01*
X141220393Y-78084431D01*
X141237134Y-78053110D01*
X141259661Y-78025661D01*
X141287110Y-78003134D01*
X141318431Y-77986393D01*
X141352409Y-77976085D01*
X141393890Y-77972000D01*
X142070110Y-77972000D01*
X142111591Y-77976085D01*
X142111591Y-77976085D01*
G37*
G36*
X146683591Y-77976085D02*
G01*
X146717569Y-77986393D01*
X146748890Y-78003134D01*
X146776339Y-78025661D01*
X146798866Y-78053110D01*
X146815607Y-78084431D01*
X146825915Y-78118409D01*
X146830000Y-78159890D01*
X146830000Y-78761110D01*
X146825915Y-78802591D01*
X146815607Y-78836569D01*
X146798866Y-78867890D01*
X146776339Y-78895339D01*
X146748890Y-78917866D01*
X146717569Y-78934607D01*
X146683591Y-78944915D01*
X146642110Y-78949000D01*
X145965890Y-78949000D01*
X145924409Y-78944915D01*
X145890431Y-78934607D01*
X145859110Y-78917866D01*
X145831661Y-78895339D01*
X145809134Y-78867890D01*
X145792393Y-78836569D01*
X145782085Y-78802591D01*
X145778000Y-78761110D01*
X145778000Y-78159890D01*
X145782085Y-78118409D01*
X145792393Y-78084431D01*
X145809134Y-78053110D01*
X145831661Y-78025661D01*
X145859110Y-78003134D01*
X145890431Y-77986393D01*
X145924409Y-77976085D01*
X145965890Y-77972000D01*
X146642110Y-77972000D01*
X146683591Y-77976085D01*
X146683591Y-77976085D01*
G37*
G36*
X144856468Y-77776565D02*
G01*
X144895138Y-77788296D01*
X144930777Y-77807346D01*
X144962017Y-77832983D01*
X144987654Y-77864223D01*
X145006704Y-77899862D01*
X145018435Y-77938532D01*
X145023000Y-77984888D01*
X145023000Y-78636112D01*
X145018435Y-78682468D01*
X145006704Y-78721138D01*
X144987654Y-78756777D01*
X144962017Y-78788017D01*
X144930777Y-78813654D01*
X144895138Y-78832704D01*
X144856468Y-78844435D01*
X144810112Y-78849000D01*
X143733888Y-78849000D01*
X143687532Y-78844435D01*
X143648862Y-78832704D01*
X143613223Y-78813654D01*
X143581983Y-78788017D01*
X143556346Y-78756777D01*
X143537296Y-78721138D01*
X143525565Y-78682468D01*
X143521000Y-78636112D01*
X143521000Y-77984888D01*
X143525565Y-77938532D01*
X143537296Y-77899862D01*
X143556346Y-77864223D01*
X143581983Y-77832983D01*
X143613223Y-77807346D01*
X143648862Y-77788296D01*
X143687532Y-77776565D01*
X143733888Y-77772000D01*
X144810112Y-77772000D01*
X144856468Y-77776565D01*
X144856468Y-77776565D01*
G37*
G36*
X140284468Y-77776565D02*
G01*
X140323138Y-77788296D01*
X140358777Y-77807346D01*
X140390017Y-77832983D01*
X140415654Y-77864223D01*
X140434704Y-77899862D01*
X140446435Y-77938532D01*
X140451000Y-77984888D01*
X140451000Y-78636112D01*
X140446435Y-78682468D01*
X140434704Y-78721138D01*
X140415654Y-78756777D01*
X140390017Y-78788017D01*
X140358777Y-78813654D01*
X140323138Y-78832704D01*
X140284468Y-78844435D01*
X140238112Y-78849000D01*
X139161888Y-78849000D01*
X139115532Y-78844435D01*
X139076862Y-78832704D01*
X139041223Y-78813654D01*
X139009983Y-78788017D01*
X138984346Y-78756777D01*
X138965296Y-78721138D01*
X138953565Y-78682468D01*
X138949000Y-78636112D01*
X138949000Y-77984888D01*
X138953565Y-77938532D01*
X138965296Y-77899862D01*
X138984346Y-77864223D01*
X139009983Y-77832983D01*
X139041223Y-77807346D01*
X139076862Y-77788296D01*
X139115532Y-77776565D01*
X139161888Y-77772000D01*
X140238112Y-77772000D01*
X140284468Y-77776565D01*
X140284468Y-77776565D01*
G37*
G36*
X149428468Y-77776565D02*
G01*
X149467138Y-77788296D01*
X149502777Y-77807346D01*
X149534017Y-77832983D01*
X149559654Y-77864223D01*
X149578704Y-77899862D01*
X149590435Y-77938532D01*
X149595000Y-77984888D01*
X149595000Y-78636112D01*
X149590435Y-78682468D01*
X149578704Y-78721138D01*
X149559654Y-78756777D01*
X149534017Y-78788017D01*
X149502777Y-78813654D01*
X149467138Y-78832704D01*
X149428468Y-78844435D01*
X149382112Y-78849000D01*
X148305888Y-78849000D01*
X148259532Y-78844435D01*
X148220862Y-78832704D01*
X148185223Y-78813654D01*
X148153983Y-78788017D01*
X148128346Y-78756777D01*
X148109296Y-78721138D01*
X148097565Y-78682468D01*
X148093000Y-78636112D01*
X148093000Y-77984888D01*
X148097565Y-77938532D01*
X148109296Y-77899862D01*
X148128346Y-77864223D01*
X148153983Y-77832983D01*
X148185223Y-77807346D01*
X148220862Y-77788296D01*
X148259532Y-77776565D01*
X148305888Y-77772000D01*
X149382112Y-77772000D01*
X149428468Y-77776565D01*
X149428468Y-77776565D01*
G37*
G36*
X135712468Y-77776565D02*
G01*
X135751138Y-77788296D01*
X135786777Y-77807346D01*
X135818017Y-77832983D01*
X135843654Y-77864223D01*
X135862704Y-77899862D01*
X135874435Y-77938532D01*
X135879000Y-77984888D01*
X135879000Y-78636112D01*
X135874435Y-78682468D01*
X135862704Y-78721138D01*
X135843654Y-78756777D01*
X135818017Y-78788017D01*
X135786777Y-78813654D01*
X135751138Y-78832704D01*
X135712468Y-78844435D01*
X135666112Y-78849000D01*
X134589888Y-78849000D01*
X134543532Y-78844435D01*
X134504862Y-78832704D01*
X134469223Y-78813654D01*
X134437983Y-78788017D01*
X134412346Y-78756777D01*
X134393296Y-78721138D01*
X134381565Y-78682468D01*
X134377000Y-78636112D01*
X134377000Y-77984888D01*
X134381565Y-77938532D01*
X134393296Y-77899862D01*
X134412346Y-77864223D01*
X134437983Y-77832983D01*
X134469223Y-77807346D01*
X134504862Y-77788296D01*
X134543532Y-77776565D01*
X134589888Y-77772000D01*
X135666112Y-77772000D01*
X135712468Y-77776565D01*
X135712468Y-77776565D01*
G37*
G36*
X131140468Y-77776565D02*
G01*
X131179138Y-77788296D01*
X131214777Y-77807346D01*
X131246017Y-77832983D01*
X131271654Y-77864223D01*
X131290704Y-77899862D01*
X131302435Y-77938532D01*
X131307000Y-77984888D01*
X131307000Y-78636112D01*
X131302435Y-78682468D01*
X131290704Y-78721138D01*
X131271654Y-78756777D01*
X131246017Y-78788017D01*
X131214777Y-78813654D01*
X131179138Y-78832704D01*
X131140468Y-78844435D01*
X131094112Y-78849000D01*
X130017888Y-78849000D01*
X129971532Y-78844435D01*
X129932862Y-78832704D01*
X129897223Y-78813654D01*
X129865983Y-78788017D01*
X129840346Y-78756777D01*
X129821296Y-78721138D01*
X129809565Y-78682468D01*
X129805000Y-78636112D01*
X129805000Y-77984888D01*
X129809565Y-77938532D01*
X129821296Y-77899862D01*
X129840346Y-77864223D01*
X129865983Y-77832983D01*
X129897223Y-77807346D01*
X129932862Y-77788296D01*
X129971532Y-77776565D01*
X130017888Y-77772000D01*
X131094112Y-77772000D01*
X131140468Y-77776565D01*
X131140468Y-77776565D01*
G37*
M02*
