M48
; DRILL file {KiCad (5.1.2)-1} date 24-Aug-19 12:01:22 AM
; FORMAT={-:-/ absolute / metric / decimal}
; #@! TF.CreationDate,2019-08-24T00:01:22+03:00
; #@! TF.GenerationSoftware,Kicad,Pcbnew,(5.1.2)-1
; #@! TF.FileFunction,Plated,1,2,PTH
FMAT,2
METRIC
T1C0.400
T2C0.500
T3C1.100
T4C1.500
%
G90
G05
T1
X131.953Y-100.33
T2
X128.27Y-100.33
X128.445Y-78.31
X131.572Y-91.313
X131.572Y-93.345
X138.303Y-95.504
X140.589Y-83.693
X140.716Y-95.504
X140.843Y-93.726
X141.351Y-100.33
X143.256Y-100.33
X144.399Y-88.773
X145.542Y-95.123
X146.061Y-88.784
X146.685Y-93.218
X147.828Y-100.203
X149.225Y-93.218
X150.876Y-100.076
T3
X136.652Y-86.36
X136.652Y-90.86
X143.152Y-86.36
X143.152Y-90.86
T4
X130.556Y-98.044
X145.045Y-83.555
T0
M30
