G04 #@! TF.GenerationSoftware,KiCad,Pcbnew,(5.1.2)-1*
G04 #@! TF.CreationDate,2019-08-24T00:01:25+03:00*
G04 #@! TF.ProjectId,PomodoroTomatoTimer,506f6d6f-646f-4726-9f54-6f6d61746f54,rev?*
G04 #@! TF.SameCoordinates,Original*
G04 #@! TF.FileFunction,Soldermask,Bot*
G04 #@! TF.FilePolarity,Negative*
%FSLAX46Y46*%
G04 Gerber Fmt 4.6, Leading zero omitted, Abs format (unit mm)*
G04 Created by KiCad (PCBNEW (5.1.2)-1) date 2019-08-24 00:01:25*
%MOMM*%
%LPD*%
G04 APERTURE LIST*
%ADD10C,0.100000*%
G04 APERTURE END LIST*
D10*
G36*
X132749445Y-98044000D02*
G01*
X130556000Y-100237445D01*
X128362555Y-98044000D01*
X130556000Y-95850555D01*
X132749445Y-98044000D01*
X132749445Y-98044000D01*
G37*
G36*
X143458564Y-89849389D02*
G01*
X143649833Y-89928615D01*
X143649835Y-89928616D01*
X143821973Y-90043635D01*
X143968365Y-90190027D01*
X144083385Y-90362167D01*
X144162611Y-90553436D01*
X144203000Y-90756484D01*
X144203000Y-90963516D01*
X144162611Y-91166564D01*
X144083385Y-91357833D01*
X144083384Y-91357835D01*
X143968365Y-91529973D01*
X143821973Y-91676365D01*
X143649835Y-91791384D01*
X143649834Y-91791385D01*
X143649833Y-91791385D01*
X143458564Y-91870611D01*
X143255516Y-91911000D01*
X143048484Y-91911000D01*
X142845436Y-91870611D01*
X142654167Y-91791385D01*
X142654166Y-91791385D01*
X142654165Y-91791384D01*
X142482027Y-91676365D01*
X142335635Y-91529973D01*
X142220616Y-91357835D01*
X142220615Y-91357833D01*
X142141389Y-91166564D01*
X142101000Y-90963516D01*
X142101000Y-90756484D01*
X142141389Y-90553436D01*
X142220615Y-90362167D01*
X142335635Y-90190027D01*
X142482027Y-90043635D01*
X142654165Y-89928616D01*
X142654167Y-89928615D01*
X142845436Y-89849389D01*
X143048484Y-89809000D01*
X143255516Y-89809000D01*
X143458564Y-89849389D01*
X143458564Y-89849389D01*
G37*
G36*
X136958564Y-89849389D02*
G01*
X137149833Y-89928615D01*
X137149835Y-89928616D01*
X137321973Y-90043635D01*
X137468365Y-90190027D01*
X137583385Y-90362167D01*
X137662611Y-90553436D01*
X137703000Y-90756484D01*
X137703000Y-90963516D01*
X137662611Y-91166564D01*
X137583385Y-91357833D01*
X137583384Y-91357835D01*
X137468365Y-91529973D01*
X137321973Y-91676365D01*
X137149835Y-91791384D01*
X137149834Y-91791385D01*
X137149833Y-91791385D01*
X136958564Y-91870611D01*
X136755516Y-91911000D01*
X136548484Y-91911000D01*
X136345436Y-91870611D01*
X136154167Y-91791385D01*
X136154166Y-91791385D01*
X136154165Y-91791384D01*
X135982027Y-91676365D01*
X135835635Y-91529973D01*
X135720616Y-91357835D01*
X135720615Y-91357833D01*
X135641389Y-91166564D01*
X135601000Y-90963516D01*
X135601000Y-90756484D01*
X135641389Y-90553436D01*
X135720615Y-90362167D01*
X135835635Y-90190027D01*
X135982027Y-90043635D01*
X136154165Y-89928616D01*
X136154167Y-89928615D01*
X136345436Y-89849389D01*
X136548484Y-89809000D01*
X136755516Y-89809000D01*
X136958564Y-89849389D01*
X136958564Y-89849389D01*
G37*
G36*
X143458564Y-85349389D02*
G01*
X143649833Y-85428615D01*
X143649835Y-85428616D01*
X143821973Y-85543635D01*
X143968365Y-85690027D01*
X144083385Y-85862167D01*
X144162611Y-86053436D01*
X144203000Y-86256484D01*
X144203000Y-86463516D01*
X144162611Y-86666564D01*
X144083385Y-86857833D01*
X144083384Y-86857835D01*
X143968365Y-87029973D01*
X143821973Y-87176365D01*
X143649835Y-87291384D01*
X143649834Y-87291385D01*
X143649833Y-87291385D01*
X143458564Y-87370611D01*
X143255516Y-87411000D01*
X143048484Y-87411000D01*
X142845436Y-87370611D01*
X142654167Y-87291385D01*
X142654166Y-87291385D01*
X142654165Y-87291384D01*
X142482027Y-87176365D01*
X142335635Y-87029973D01*
X142220616Y-86857835D01*
X142220615Y-86857833D01*
X142141389Y-86666564D01*
X142101000Y-86463516D01*
X142101000Y-86256484D01*
X142141389Y-86053436D01*
X142220615Y-85862167D01*
X142335635Y-85690027D01*
X142482027Y-85543635D01*
X142654165Y-85428616D01*
X142654167Y-85428615D01*
X142845436Y-85349389D01*
X143048484Y-85309000D01*
X143255516Y-85309000D01*
X143458564Y-85349389D01*
X143458564Y-85349389D01*
G37*
G36*
X136958564Y-85349389D02*
G01*
X137149833Y-85428615D01*
X137149835Y-85428616D01*
X137321973Y-85543635D01*
X137468365Y-85690027D01*
X137583385Y-85862167D01*
X137662611Y-86053436D01*
X137703000Y-86256484D01*
X137703000Y-86463516D01*
X137662611Y-86666564D01*
X137583385Y-86857833D01*
X137583384Y-86857835D01*
X137468365Y-87029973D01*
X137321973Y-87176365D01*
X137149835Y-87291384D01*
X137149834Y-87291385D01*
X137149833Y-87291385D01*
X136958564Y-87370611D01*
X136755516Y-87411000D01*
X136548484Y-87411000D01*
X136345436Y-87370611D01*
X136154167Y-87291385D01*
X136154166Y-87291385D01*
X136154165Y-87291384D01*
X135982027Y-87176365D01*
X135835635Y-87029973D01*
X135720616Y-86857835D01*
X135720615Y-86857833D01*
X135641389Y-86666564D01*
X135601000Y-86463516D01*
X135601000Y-86256484D01*
X135641389Y-86053436D01*
X135720615Y-85862167D01*
X135835635Y-85690027D01*
X135982027Y-85543635D01*
X136154165Y-85428616D01*
X136154167Y-85428615D01*
X136345436Y-85349389D01*
X136548484Y-85309000D01*
X136755516Y-85309000D01*
X136958564Y-85349389D01*
X136958564Y-85349389D01*
G37*
G36*
X145347203Y-82034184D02*
G01*
X145497028Y-82063986D01*
X145779292Y-82180903D01*
X146033323Y-82350641D01*
X146249359Y-82566677D01*
X146419097Y-82820708D01*
X146536014Y-83102972D01*
X146595618Y-83402622D01*
X146595618Y-83708142D01*
X146536014Y-84007792D01*
X146419097Y-84290056D01*
X146249359Y-84544087D01*
X146033323Y-84760123D01*
X145779292Y-84929861D01*
X145497028Y-85046778D01*
X145347203Y-85076580D01*
X145197379Y-85106382D01*
X144891857Y-85106382D01*
X144742033Y-85076580D01*
X144592208Y-85046778D01*
X144309944Y-84929861D01*
X144055913Y-84760123D01*
X143839877Y-84544087D01*
X143670139Y-84290056D01*
X143553222Y-84007792D01*
X143493618Y-83708142D01*
X143493618Y-83402622D01*
X143553222Y-83102972D01*
X143670139Y-82820708D01*
X143839877Y-82566677D01*
X144055913Y-82350641D01*
X144309944Y-82180903D01*
X144592208Y-82063986D01*
X144742033Y-82034184D01*
X144891857Y-82004382D01*
X145197379Y-82004382D01*
X145347203Y-82034184D01*
X145347203Y-82034184D01*
G37*
M02*
