G04 #@! TF.GenerationSoftware,KiCad,Pcbnew,(5.1.2)-1*
G04 #@! TF.CreationDate,2019-08-24T00:01:25+03:00*
G04 #@! TF.ProjectId,PomodoroTomatoTimer,506f6d6f-646f-4726-9f54-6f6d61746f54,rev?*
G04 #@! TF.SameCoordinates,Original*
G04 #@! TF.FileFunction,Copper,L2,Bot*
G04 #@! TF.FilePolarity,Positive*
%FSLAX46Y46*%
G04 Gerber Fmt 4.6, Leading zero omitted, Abs format (unit mm)*
G04 Created by KiCad (PCBNEW (5.1.2)-1) date 2019-08-24 00:01:25*
%MOMM*%
%LPD*%
G04 APERTURE LIST*
%ADD10C,2.000000*%
%ADD11C,3.000000*%
%ADD12C,0.100000*%
%ADD13C,1.000000*%
%ADD14C,0.800000*%
%ADD15C,0.300000*%
%ADD16C,0.254000*%
G04 APERTURE END LIST*
D10*
X136652000Y-90860000D03*
X136652000Y-86360000D03*
X143152000Y-90860000D03*
X143152000Y-86360000D03*
D11*
X145044618Y-83555382D03*
X130556000Y-98044000D03*
D12*
G36*
X130556000Y-100165320D02*
G01*
X128434680Y-98044000D01*
X130556000Y-95922680D01*
X132677320Y-98044000D01*
X130556000Y-100165320D01*
X130556000Y-100165320D01*
G37*
D13*
X143256000Y-100330000D03*
X140843000Y-93726000D03*
X128270000Y-100330000D03*
X150876000Y-100076000D03*
X140589000Y-83693000D03*
X141351000Y-100330000D03*
X145542000Y-95123000D03*
X131572000Y-93345000D03*
X131572000Y-91313000D03*
X128445500Y-78310500D03*
D14*
X131953000Y-100330000D03*
D13*
X147828000Y-100203000D03*
X146061000Y-88784000D03*
X146685000Y-93218000D03*
X149225000Y-93218000D03*
X138303000Y-95504000D03*
X140716000Y-95504000D03*
X144399000Y-88773000D03*
D15*
X143256000Y-100330000D02*
X143256000Y-96139000D01*
X143256000Y-96139000D02*
X140843000Y-93726000D01*
X143152000Y-86360000D02*
X136652000Y-86360000D01*
X146685000Y-93218000D02*
X149225000Y-93218000D01*
X140716000Y-95504000D02*
X138303000Y-95504000D01*
X136652000Y-90860000D02*
X143152000Y-90860000D01*
D16*
G36*
X151618070Y-100838000D02*
G01*
X144274095Y-100838000D01*
X144347383Y-100661067D01*
X144391000Y-100441788D01*
X144391000Y-100218212D01*
X144347383Y-99998933D01*
X144261824Y-99792376D01*
X144137612Y-99606480D01*
X144041000Y-99509868D01*
X144041000Y-96177552D01*
X144044797Y-96138999D01*
X144041000Y-96100446D01*
X144041000Y-96100439D01*
X144029641Y-95985113D01*
X143984754Y-95837140D01*
X143911862Y-95700767D01*
X143813764Y-95581236D01*
X143783816Y-95556658D01*
X141978000Y-93750843D01*
X141978000Y-93614212D01*
X141934383Y-93394933D01*
X141848824Y-93188376D01*
X141793924Y-93106212D01*
X145550000Y-93106212D01*
X145550000Y-93329788D01*
X145593617Y-93549067D01*
X145679176Y-93755624D01*
X145803388Y-93941520D01*
X145961480Y-94099612D01*
X146147376Y-94223824D01*
X146353933Y-94309383D01*
X146573212Y-94353000D01*
X146796788Y-94353000D01*
X147016067Y-94309383D01*
X147222624Y-94223824D01*
X147408520Y-94099612D01*
X147505132Y-94003000D01*
X148404868Y-94003000D01*
X148501480Y-94099612D01*
X148687376Y-94223824D01*
X148893933Y-94309383D01*
X149113212Y-94353000D01*
X149336788Y-94353000D01*
X149556067Y-94309383D01*
X149762624Y-94223824D01*
X149948520Y-94099612D01*
X150106612Y-93941520D01*
X150230824Y-93755624D01*
X150316383Y-93549067D01*
X150360000Y-93329788D01*
X150360000Y-93106212D01*
X150316383Y-92886933D01*
X150230824Y-92680376D01*
X150106612Y-92494480D01*
X149948520Y-92336388D01*
X149762624Y-92212176D01*
X149556067Y-92126617D01*
X149336788Y-92083000D01*
X149113212Y-92083000D01*
X148893933Y-92126617D01*
X148687376Y-92212176D01*
X148501480Y-92336388D01*
X148404868Y-92433000D01*
X147505132Y-92433000D01*
X147408520Y-92336388D01*
X147222624Y-92212176D01*
X147016067Y-92126617D01*
X146796788Y-92083000D01*
X146573212Y-92083000D01*
X146353933Y-92126617D01*
X146147376Y-92212176D01*
X145961480Y-92336388D01*
X145803388Y-92494480D01*
X145679176Y-92680376D01*
X145593617Y-92886933D01*
X145550000Y-93106212D01*
X141793924Y-93106212D01*
X141724612Y-93002480D01*
X141566520Y-92844388D01*
X141380624Y-92720176D01*
X141174067Y-92634617D01*
X140954788Y-92591000D01*
X140731212Y-92591000D01*
X140511933Y-92634617D01*
X140305376Y-92720176D01*
X140119480Y-92844388D01*
X139961388Y-93002480D01*
X139837176Y-93188376D01*
X139751617Y-93394933D01*
X139708000Y-93614212D01*
X139708000Y-93837788D01*
X139751617Y-94057067D01*
X139837176Y-94263624D01*
X139961388Y-94449520D01*
X140077468Y-94565600D01*
X139992480Y-94622388D01*
X139895868Y-94719000D01*
X139123132Y-94719000D01*
X139026520Y-94622388D01*
X138840624Y-94498176D01*
X138634067Y-94412617D01*
X138414788Y-94369000D01*
X138191212Y-94369000D01*
X137971933Y-94412617D01*
X137765376Y-94498176D01*
X137579480Y-94622388D01*
X137421388Y-94780480D01*
X137297176Y-94966376D01*
X137211617Y-95172933D01*
X137168000Y-95392212D01*
X137168000Y-95615788D01*
X137211617Y-95835067D01*
X137297176Y-96041624D01*
X137421388Y-96227520D01*
X137579480Y-96385612D01*
X137765376Y-96509824D01*
X137971933Y-96595383D01*
X138191212Y-96639000D01*
X138414788Y-96639000D01*
X138634067Y-96595383D01*
X138840624Y-96509824D01*
X139026520Y-96385612D01*
X139123132Y-96289000D01*
X139895868Y-96289000D01*
X139992480Y-96385612D01*
X140178376Y-96509824D01*
X140384933Y-96595383D01*
X140604212Y-96639000D01*
X140827788Y-96639000D01*
X141047067Y-96595383D01*
X141253624Y-96509824D01*
X141439520Y-96385612D01*
X141597612Y-96227520D01*
X141721824Y-96041624D01*
X141807383Y-95835067D01*
X141813111Y-95806269D01*
X142471001Y-96464159D01*
X142471000Y-99509868D01*
X142374388Y-99606480D01*
X142250176Y-99792376D01*
X142164617Y-99998933D01*
X142121000Y-100218212D01*
X142121000Y-100441788D01*
X142164617Y-100661067D01*
X142237905Y-100838000D01*
X127742070Y-100838000D01*
X127742070Y-98044000D01*
X127796608Y-98044000D01*
X127808868Y-98168482D01*
X127845178Y-98288180D01*
X127904143Y-98398494D01*
X127983495Y-98495185D01*
X130104815Y-100616505D01*
X130201506Y-100695857D01*
X130311820Y-100754822D01*
X130431518Y-100791132D01*
X130556000Y-100803392D01*
X130680482Y-100791132D01*
X130800180Y-100754822D01*
X130910494Y-100695857D01*
X131007185Y-100616505D01*
X133128505Y-98495185D01*
X133207857Y-98398494D01*
X133266822Y-98288180D01*
X133303132Y-98168482D01*
X133315392Y-98044000D01*
X133303132Y-97919518D01*
X133266822Y-97799820D01*
X133207857Y-97689506D01*
X133128505Y-97592815D01*
X131007185Y-95471495D01*
X130910494Y-95392143D01*
X130800180Y-95333178D01*
X130680482Y-95296868D01*
X130556000Y-95284608D01*
X130431518Y-95296868D01*
X130311820Y-95333178D01*
X130201506Y-95392143D01*
X130104815Y-95471495D01*
X127983495Y-97592815D01*
X127904143Y-97689506D01*
X127845178Y-97799820D01*
X127808868Y-97919518D01*
X127796608Y-98044000D01*
X127742070Y-98044000D01*
X127742070Y-86198967D01*
X135017000Y-86198967D01*
X135017000Y-86521033D01*
X135079832Y-86836912D01*
X135203082Y-87134463D01*
X135382013Y-87402252D01*
X135609748Y-87629987D01*
X135877537Y-87808918D01*
X136175088Y-87932168D01*
X136490967Y-87995000D01*
X136813033Y-87995000D01*
X137128912Y-87932168D01*
X137426463Y-87808918D01*
X137694252Y-87629987D01*
X137921987Y-87402252D01*
X138093877Y-87145000D01*
X141710123Y-87145000D01*
X141882013Y-87402252D01*
X142109748Y-87629987D01*
X142377537Y-87808918D01*
X142675088Y-87932168D01*
X142990967Y-87995000D01*
X143313033Y-87995000D01*
X143628912Y-87932168D01*
X143638793Y-87928075D01*
X143517388Y-88049480D01*
X143393176Y-88235376D01*
X143307617Y-88441933D01*
X143264000Y-88661212D01*
X143264000Y-88884788D01*
X143307617Y-89104067D01*
X143361721Y-89234685D01*
X143313033Y-89225000D01*
X142990967Y-89225000D01*
X142675088Y-89287832D01*
X142377537Y-89411082D01*
X142109748Y-89590013D01*
X141882013Y-89817748D01*
X141710123Y-90075000D01*
X138093877Y-90075000D01*
X137921987Y-89817748D01*
X137694252Y-89590013D01*
X137426463Y-89411082D01*
X137128912Y-89287832D01*
X136813033Y-89225000D01*
X136490967Y-89225000D01*
X136175088Y-89287832D01*
X135877537Y-89411082D01*
X135609748Y-89590013D01*
X135382013Y-89817748D01*
X135203082Y-90085537D01*
X135079832Y-90383088D01*
X135017000Y-90698967D01*
X135017000Y-91021033D01*
X135079832Y-91336912D01*
X135203082Y-91634463D01*
X135382013Y-91902252D01*
X135609748Y-92129987D01*
X135877537Y-92308918D01*
X136175088Y-92432168D01*
X136490967Y-92495000D01*
X136813033Y-92495000D01*
X137128912Y-92432168D01*
X137426463Y-92308918D01*
X137694252Y-92129987D01*
X137921987Y-91902252D01*
X138093877Y-91645000D01*
X141710123Y-91645000D01*
X141882013Y-91902252D01*
X142109748Y-92129987D01*
X142377537Y-92308918D01*
X142675088Y-92432168D01*
X142990967Y-92495000D01*
X143313033Y-92495000D01*
X143628912Y-92432168D01*
X143926463Y-92308918D01*
X144194252Y-92129987D01*
X144421987Y-91902252D01*
X144600918Y-91634463D01*
X144724168Y-91336912D01*
X144787000Y-91021033D01*
X144787000Y-90698967D01*
X144724168Y-90383088D01*
X144600918Y-90085537D01*
X144482291Y-89908000D01*
X144510788Y-89908000D01*
X144730067Y-89864383D01*
X144936624Y-89778824D01*
X145122520Y-89654612D01*
X145224500Y-89552632D01*
X145337480Y-89665612D01*
X145523376Y-89789824D01*
X145729933Y-89875383D01*
X145949212Y-89919000D01*
X146172788Y-89919000D01*
X146392067Y-89875383D01*
X146598624Y-89789824D01*
X146784520Y-89665612D01*
X146942612Y-89507520D01*
X147066824Y-89321624D01*
X147152383Y-89115067D01*
X147196000Y-88895788D01*
X147196000Y-88672212D01*
X147152383Y-88452933D01*
X147066824Y-88246376D01*
X146942612Y-88060480D01*
X146784520Y-87902388D01*
X146598624Y-87778176D01*
X146392067Y-87692617D01*
X146172788Y-87649000D01*
X145949212Y-87649000D01*
X145729933Y-87692617D01*
X145523376Y-87778176D01*
X145337480Y-87902388D01*
X145235500Y-88004368D01*
X145122520Y-87891388D01*
X144936624Y-87767176D01*
X144730067Y-87681617D01*
X144510788Y-87638000D01*
X144287212Y-87638000D01*
X144137773Y-87667725D01*
X144194252Y-87629987D01*
X144421987Y-87402252D01*
X144600918Y-87134463D01*
X144724168Y-86836912D01*
X144787000Y-86521033D01*
X144787000Y-86198967D01*
X144724168Y-85883088D01*
X144622539Y-85637734D01*
X144917618Y-85537898D01*
X144917618Y-83861990D01*
X145030477Y-83749131D01*
X144963728Y-83682382D01*
X145171618Y-83682382D01*
X145171618Y-85537898D01*
X145505069Y-85650717D01*
X145905001Y-85520626D01*
X146271869Y-85315012D01*
X146591574Y-85041776D01*
X146851831Y-84711419D01*
X147042638Y-84336636D01*
X147139953Y-84015833D01*
X147027134Y-83682382D01*
X145171618Y-83682382D01*
X144963728Y-83682382D01*
X144850869Y-83569523D01*
X144738010Y-83682382D01*
X143062102Y-83682382D01*
X142949283Y-84015833D01*
X143079374Y-84415765D01*
X143252687Y-84725000D01*
X142990967Y-84725000D01*
X142675088Y-84787832D01*
X142377537Y-84911082D01*
X142109748Y-85090013D01*
X141882013Y-85317748D01*
X141710123Y-85575000D01*
X138093877Y-85575000D01*
X137921987Y-85317748D01*
X137694252Y-85090013D01*
X137426463Y-84911082D01*
X137128912Y-84787832D01*
X136813033Y-84725000D01*
X136490967Y-84725000D01*
X136175088Y-84787832D01*
X135877537Y-84911082D01*
X135609748Y-85090013D01*
X135382013Y-85317748D01*
X135203082Y-85585537D01*
X135079832Y-85883088D01*
X135017000Y-86198967D01*
X127742070Y-86198967D01*
X127742070Y-83094931D01*
X142949283Y-83094931D01*
X143062102Y-83428382D01*
X144917618Y-83428382D01*
X144917618Y-81572866D01*
X145171618Y-81572866D01*
X145171618Y-83428382D01*
X147027134Y-83428382D01*
X147139953Y-83094931D01*
X147009862Y-82694999D01*
X146804248Y-82328131D01*
X146531012Y-82008426D01*
X146200655Y-81748169D01*
X145825872Y-81557362D01*
X145505069Y-81460047D01*
X145171618Y-81572866D01*
X144917618Y-81572866D01*
X144584167Y-81460047D01*
X144184235Y-81590138D01*
X143817367Y-81795752D01*
X143497662Y-82068988D01*
X143237405Y-82399345D01*
X143046598Y-82774128D01*
X142949283Y-83094931D01*
X127742070Y-83094931D01*
X127742070Y-76962000D01*
X151618070Y-76962000D01*
X151618070Y-100838000D01*
X151618070Y-100838000D01*
G37*
X151618070Y-100838000D02*
X144274095Y-100838000D01*
X144347383Y-100661067D01*
X144391000Y-100441788D01*
X144391000Y-100218212D01*
X144347383Y-99998933D01*
X144261824Y-99792376D01*
X144137612Y-99606480D01*
X144041000Y-99509868D01*
X144041000Y-96177552D01*
X144044797Y-96138999D01*
X144041000Y-96100446D01*
X144041000Y-96100439D01*
X144029641Y-95985113D01*
X143984754Y-95837140D01*
X143911862Y-95700767D01*
X143813764Y-95581236D01*
X143783816Y-95556658D01*
X141978000Y-93750843D01*
X141978000Y-93614212D01*
X141934383Y-93394933D01*
X141848824Y-93188376D01*
X141793924Y-93106212D01*
X145550000Y-93106212D01*
X145550000Y-93329788D01*
X145593617Y-93549067D01*
X145679176Y-93755624D01*
X145803388Y-93941520D01*
X145961480Y-94099612D01*
X146147376Y-94223824D01*
X146353933Y-94309383D01*
X146573212Y-94353000D01*
X146796788Y-94353000D01*
X147016067Y-94309383D01*
X147222624Y-94223824D01*
X147408520Y-94099612D01*
X147505132Y-94003000D01*
X148404868Y-94003000D01*
X148501480Y-94099612D01*
X148687376Y-94223824D01*
X148893933Y-94309383D01*
X149113212Y-94353000D01*
X149336788Y-94353000D01*
X149556067Y-94309383D01*
X149762624Y-94223824D01*
X149948520Y-94099612D01*
X150106612Y-93941520D01*
X150230824Y-93755624D01*
X150316383Y-93549067D01*
X150360000Y-93329788D01*
X150360000Y-93106212D01*
X150316383Y-92886933D01*
X150230824Y-92680376D01*
X150106612Y-92494480D01*
X149948520Y-92336388D01*
X149762624Y-92212176D01*
X149556067Y-92126617D01*
X149336788Y-92083000D01*
X149113212Y-92083000D01*
X148893933Y-92126617D01*
X148687376Y-92212176D01*
X148501480Y-92336388D01*
X148404868Y-92433000D01*
X147505132Y-92433000D01*
X147408520Y-92336388D01*
X147222624Y-92212176D01*
X147016067Y-92126617D01*
X146796788Y-92083000D01*
X146573212Y-92083000D01*
X146353933Y-92126617D01*
X146147376Y-92212176D01*
X145961480Y-92336388D01*
X145803388Y-92494480D01*
X145679176Y-92680376D01*
X145593617Y-92886933D01*
X145550000Y-93106212D01*
X141793924Y-93106212D01*
X141724612Y-93002480D01*
X141566520Y-92844388D01*
X141380624Y-92720176D01*
X141174067Y-92634617D01*
X140954788Y-92591000D01*
X140731212Y-92591000D01*
X140511933Y-92634617D01*
X140305376Y-92720176D01*
X140119480Y-92844388D01*
X139961388Y-93002480D01*
X139837176Y-93188376D01*
X139751617Y-93394933D01*
X139708000Y-93614212D01*
X139708000Y-93837788D01*
X139751617Y-94057067D01*
X139837176Y-94263624D01*
X139961388Y-94449520D01*
X140077468Y-94565600D01*
X139992480Y-94622388D01*
X139895868Y-94719000D01*
X139123132Y-94719000D01*
X139026520Y-94622388D01*
X138840624Y-94498176D01*
X138634067Y-94412617D01*
X138414788Y-94369000D01*
X138191212Y-94369000D01*
X137971933Y-94412617D01*
X137765376Y-94498176D01*
X137579480Y-94622388D01*
X137421388Y-94780480D01*
X137297176Y-94966376D01*
X137211617Y-95172933D01*
X137168000Y-95392212D01*
X137168000Y-95615788D01*
X137211617Y-95835067D01*
X137297176Y-96041624D01*
X137421388Y-96227520D01*
X137579480Y-96385612D01*
X137765376Y-96509824D01*
X137971933Y-96595383D01*
X138191212Y-96639000D01*
X138414788Y-96639000D01*
X138634067Y-96595383D01*
X138840624Y-96509824D01*
X139026520Y-96385612D01*
X139123132Y-96289000D01*
X139895868Y-96289000D01*
X139992480Y-96385612D01*
X140178376Y-96509824D01*
X140384933Y-96595383D01*
X140604212Y-96639000D01*
X140827788Y-96639000D01*
X141047067Y-96595383D01*
X141253624Y-96509824D01*
X141439520Y-96385612D01*
X141597612Y-96227520D01*
X141721824Y-96041624D01*
X141807383Y-95835067D01*
X141813111Y-95806269D01*
X142471001Y-96464159D01*
X142471000Y-99509868D01*
X142374388Y-99606480D01*
X142250176Y-99792376D01*
X142164617Y-99998933D01*
X142121000Y-100218212D01*
X142121000Y-100441788D01*
X142164617Y-100661067D01*
X142237905Y-100838000D01*
X127742070Y-100838000D01*
X127742070Y-98044000D01*
X127796608Y-98044000D01*
X127808868Y-98168482D01*
X127845178Y-98288180D01*
X127904143Y-98398494D01*
X127983495Y-98495185D01*
X130104815Y-100616505D01*
X130201506Y-100695857D01*
X130311820Y-100754822D01*
X130431518Y-100791132D01*
X130556000Y-100803392D01*
X130680482Y-100791132D01*
X130800180Y-100754822D01*
X130910494Y-100695857D01*
X131007185Y-100616505D01*
X133128505Y-98495185D01*
X133207857Y-98398494D01*
X133266822Y-98288180D01*
X133303132Y-98168482D01*
X133315392Y-98044000D01*
X133303132Y-97919518D01*
X133266822Y-97799820D01*
X133207857Y-97689506D01*
X133128505Y-97592815D01*
X131007185Y-95471495D01*
X130910494Y-95392143D01*
X130800180Y-95333178D01*
X130680482Y-95296868D01*
X130556000Y-95284608D01*
X130431518Y-95296868D01*
X130311820Y-95333178D01*
X130201506Y-95392143D01*
X130104815Y-95471495D01*
X127983495Y-97592815D01*
X127904143Y-97689506D01*
X127845178Y-97799820D01*
X127808868Y-97919518D01*
X127796608Y-98044000D01*
X127742070Y-98044000D01*
X127742070Y-86198967D01*
X135017000Y-86198967D01*
X135017000Y-86521033D01*
X135079832Y-86836912D01*
X135203082Y-87134463D01*
X135382013Y-87402252D01*
X135609748Y-87629987D01*
X135877537Y-87808918D01*
X136175088Y-87932168D01*
X136490967Y-87995000D01*
X136813033Y-87995000D01*
X137128912Y-87932168D01*
X137426463Y-87808918D01*
X137694252Y-87629987D01*
X137921987Y-87402252D01*
X138093877Y-87145000D01*
X141710123Y-87145000D01*
X141882013Y-87402252D01*
X142109748Y-87629987D01*
X142377537Y-87808918D01*
X142675088Y-87932168D01*
X142990967Y-87995000D01*
X143313033Y-87995000D01*
X143628912Y-87932168D01*
X143638793Y-87928075D01*
X143517388Y-88049480D01*
X143393176Y-88235376D01*
X143307617Y-88441933D01*
X143264000Y-88661212D01*
X143264000Y-88884788D01*
X143307617Y-89104067D01*
X143361721Y-89234685D01*
X143313033Y-89225000D01*
X142990967Y-89225000D01*
X142675088Y-89287832D01*
X142377537Y-89411082D01*
X142109748Y-89590013D01*
X141882013Y-89817748D01*
X141710123Y-90075000D01*
X138093877Y-90075000D01*
X137921987Y-89817748D01*
X137694252Y-89590013D01*
X137426463Y-89411082D01*
X137128912Y-89287832D01*
X136813033Y-89225000D01*
X136490967Y-89225000D01*
X136175088Y-89287832D01*
X135877537Y-89411082D01*
X135609748Y-89590013D01*
X135382013Y-89817748D01*
X135203082Y-90085537D01*
X135079832Y-90383088D01*
X135017000Y-90698967D01*
X135017000Y-91021033D01*
X135079832Y-91336912D01*
X135203082Y-91634463D01*
X135382013Y-91902252D01*
X135609748Y-92129987D01*
X135877537Y-92308918D01*
X136175088Y-92432168D01*
X136490967Y-92495000D01*
X136813033Y-92495000D01*
X137128912Y-92432168D01*
X137426463Y-92308918D01*
X137694252Y-92129987D01*
X137921987Y-91902252D01*
X138093877Y-91645000D01*
X141710123Y-91645000D01*
X141882013Y-91902252D01*
X142109748Y-92129987D01*
X142377537Y-92308918D01*
X142675088Y-92432168D01*
X142990967Y-92495000D01*
X143313033Y-92495000D01*
X143628912Y-92432168D01*
X143926463Y-92308918D01*
X144194252Y-92129987D01*
X144421987Y-91902252D01*
X144600918Y-91634463D01*
X144724168Y-91336912D01*
X144787000Y-91021033D01*
X144787000Y-90698967D01*
X144724168Y-90383088D01*
X144600918Y-90085537D01*
X144482291Y-89908000D01*
X144510788Y-89908000D01*
X144730067Y-89864383D01*
X144936624Y-89778824D01*
X145122520Y-89654612D01*
X145224500Y-89552632D01*
X145337480Y-89665612D01*
X145523376Y-89789824D01*
X145729933Y-89875383D01*
X145949212Y-89919000D01*
X146172788Y-89919000D01*
X146392067Y-89875383D01*
X146598624Y-89789824D01*
X146784520Y-89665612D01*
X146942612Y-89507520D01*
X147066824Y-89321624D01*
X147152383Y-89115067D01*
X147196000Y-88895788D01*
X147196000Y-88672212D01*
X147152383Y-88452933D01*
X147066824Y-88246376D01*
X146942612Y-88060480D01*
X146784520Y-87902388D01*
X146598624Y-87778176D01*
X146392067Y-87692617D01*
X146172788Y-87649000D01*
X145949212Y-87649000D01*
X145729933Y-87692617D01*
X145523376Y-87778176D01*
X145337480Y-87902388D01*
X145235500Y-88004368D01*
X145122520Y-87891388D01*
X144936624Y-87767176D01*
X144730067Y-87681617D01*
X144510788Y-87638000D01*
X144287212Y-87638000D01*
X144137773Y-87667725D01*
X144194252Y-87629987D01*
X144421987Y-87402252D01*
X144600918Y-87134463D01*
X144724168Y-86836912D01*
X144787000Y-86521033D01*
X144787000Y-86198967D01*
X144724168Y-85883088D01*
X144622539Y-85637734D01*
X144917618Y-85537898D01*
X144917618Y-83861990D01*
X145030477Y-83749131D01*
X144963728Y-83682382D01*
X145171618Y-83682382D01*
X145171618Y-85537898D01*
X145505069Y-85650717D01*
X145905001Y-85520626D01*
X146271869Y-85315012D01*
X146591574Y-85041776D01*
X146851831Y-84711419D01*
X147042638Y-84336636D01*
X147139953Y-84015833D01*
X147027134Y-83682382D01*
X145171618Y-83682382D01*
X144963728Y-83682382D01*
X144850869Y-83569523D01*
X144738010Y-83682382D01*
X143062102Y-83682382D01*
X142949283Y-84015833D01*
X143079374Y-84415765D01*
X143252687Y-84725000D01*
X142990967Y-84725000D01*
X142675088Y-84787832D01*
X142377537Y-84911082D01*
X142109748Y-85090013D01*
X141882013Y-85317748D01*
X141710123Y-85575000D01*
X138093877Y-85575000D01*
X137921987Y-85317748D01*
X137694252Y-85090013D01*
X137426463Y-84911082D01*
X137128912Y-84787832D01*
X136813033Y-84725000D01*
X136490967Y-84725000D01*
X136175088Y-84787832D01*
X135877537Y-84911082D01*
X135609748Y-85090013D01*
X135382013Y-85317748D01*
X135203082Y-85585537D01*
X135079832Y-85883088D01*
X135017000Y-86198967D01*
X127742070Y-86198967D01*
X127742070Y-83094931D01*
X142949283Y-83094931D01*
X143062102Y-83428382D01*
X144917618Y-83428382D01*
X144917618Y-81572866D01*
X145171618Y-81572866D01*
X145171618Y-83428382D01*
X147027134Y-83428382D01*
X147139953Y-83094931D01*
X147009862Y-82694999D01*
X146804248Y-82328131D01*
X146531012Y-82008426D01*
X146200655Y-81748169D01*
X145825872Y-81557362D01*
X145505069Y-81460047D01*
X145171618Y-81572866D01*
X144917618Y-81572866D01*
X144584167Y-81460047D01*
X144184235Y-81590138D01*
X143817367Y-81795752D01*
X143497662Y-82068988D01*
X143237405Y-82399345D01*
X143046598Y-82774128D01*
X142949283Y-83094931D01*
X127742070Y-83094931D01*
X127742070Y-76962000D01*
X151618070Y-76962000D01*
X151618070Y-100838000D01*
M02*
